<svg width="96" height="96" viewBox="0 0 96 96" fill="none" xmlns="http://www.w3.org/2000/svg">
<path d="M38.4866 70.4128V66.6321C38.4864 65.9376 37.9273 65.3743 37.2377 65.3743H31.4094C29.3402 65.3742 27.6627 63.6848 27.6627 61.6009V52.3828C27.6626 51.6882 27.1035 51.125 26.4138 51.125H25.0438C22.2584 51.125 20.4472 48.1728 21.693 45.6639L27.531 33.9064C27.6128 33.7417 27.6649 33.528 27.6708 33.298C27.8087 28.012 29.6614 23.9619 32.5795 21.064C35.4768 18.1868 39.3422 16.5247 43.4017 15.8289C51.4468 14.4499 60.7093 16.8012 65.5966 21.724L65.9414 22.0777C73.0938 29.5471 74.4709 39.5341 72.3095 47.9772C70.1304 56.4891 64.2407 63.7878 56.6055 65.2301C55.698 65.4016 55.1387 66.0943 55.1387 66.7434V70.5225C55.1387 71.2172 54.5795 71.7803 53.8898 71.7803C53.2 71.7803 52.6409 71.2172 52.6409 70.5225V66.7434C52.6409 64.614 54.341 63.0988 56.1453 62.7579C62.4926 61.5589 67.8549 55.3007 69.8906 47.3491C71.9095 39.4625 70.543 30.2628 63.8306 23.5026C59.6505 19.292 51.2756 17.0314 43.8204 18.3093C40.13 18.9419 36.7793 20.4259 34.3333 22.8549C31.9083 25.2631 30.29 28.6798 30.1678 33.3643C30.1535 33.9152 30.0304 34.4977 29.7654 35.0316L23.9266 46.789C23.5113 47.6253 24.1153 48.6094 25.0438 48.6094H26.4138C28.483 48.6094 30.1604 50.2989 30.1605 52.3828V61.6009C30.1605 62.2955 30.7197 62.8586 31.4094 62.8587H37.2377C39.3068 62.8587 40.9842 64.5482 40.9844 66.6321V70.4128C40.9842 71.1073 40.4251 71.6706 39.7355 71.6706C39.0458 71.6706 38.4868 71.1073 38.4866 70.4128Z" fill="#3C8CF4"/>
<path d="M38.718 55.6826C39.197 55.6826 39.5852 56.0102 39.5852 56.4143C39.5852 56.8184 39.197 57.146 38.718 57.146H28.7451C28.2662 57.146 27.8779 56.8184 27.8779 56.4143C27.8779 56.0102 28.2662 55.6826 28.7451 55.6826H38.718Z" fill="#3C8CF4"/>
<path d="M30.0737 35.9433C33.1532 30.0677 42.3601 30.0676 45.4396 35.9433L44.6828 36.2924L45.4396 36.6424C42.3599 42.5175 33.1532 42.5176 30.0737 36.6424L30.8297 36.2924L30.0737 35.9433ZM43.7249 36.2924C41.1556 32.0658 34.3576 32.0656 31.7884 36.2924C34.3575 40.5194 41.1556 40.5192 43.7249 36.2924Z" fill="#3C8CF4"/>
<path d="M38.6705 36.2931C38.6705 35.3839 37.9334 34.6468 37.0242 34.6468C36.1149 34.6468 35.3778 35.3839 35.3778 36.2931C35.3778 37.2024 36.1149 37.9395 37.0242 37.9395V39.5858C35.2057 39.5858 33.7315 38.1116 33.7315 36.2931C33.7315 34.4746 35.2057 33.0004 37.0242 33.0004C38.8427 33.0004 40.3168 34.4746 40.3168 36.2931C40.3168 38.1116 38.8427 39.5858 37.0242 39.5858V37.9395C37.9334 37.9395 38.6705 37.2024 38.6705 36.2931Z" fill="#3C8CF4"/>
<path d="M65.4044 40.7153V33.6698C65.4044 28.7554 61.4113 24.7633 56.4671 24.7347C51.4819 24.7059 47.4253 28.7148 47.4253 33.6698V39.6179C47.4253 43.9907 50.9921 47.536 55.3916 47.536C59.7751 47.5358 63.3348 44.0154 63.3571 39.6585L63.3889 33.4417C63.4076 29.7551 60.4057 26.7566 56.6965 26.7566C53.0155 26.7566 50.0252 29.7116 50.0042 33.3703L49.9699 39.4182C49.9523 42.5192 52.4766 45.0425 55.5965 45.0425C58.704 45.0424 61.2231 42.5386 61.2232 39.4499V33.1982C61.2232 30.7882 59.2576 28.8345 56.8329 28.8345C54.4083 28.8345 52.4427 30.7882 52.4427 33.1982V39.432C52.4427 41.1535 53.8467 42.5489 55.5786 42.5489C57.3105 42.5489 58.7145 41.1535 58.7145 39.432V33.1982C58.7145 32.1654 57.8721 31.3281 56.8329 31.3281C55.7938 31.3281 54.9514 32.1654 54.9514 33.1982V39.432C54.9514 39.7763 55.2322 40.0554 55.5786 40.0554C55.925 40.0554 56.2057 39.7763 56.2057 39.432V32.367H57.4601V39.432C57.4601 40.4649 56.6177 41.3022 55.5786 41.3022C54.5394 41.3022 53.697 40.4649 53.697 39.432V33.1982C53.697 31.4768 55.101 30.0813 56.8329 30.0813C58.5648 30.0813 59.9688 31.4768 59.9688 33.1982V39.432C59.9688 41.842 58.0032 43.7957 55.5786 43.7957C53.1539 43.7957 51.1883 41.842 51.1883 39.432V33.1982C51.1883 30.0997 53.7155 27.5878 56.8329 27.5878C59.9504 27.5878 62.4775 30.0997 62.4775 33.1982V39.4499C62.4775 43.2271 59.3968 46.2892 55.5965 46.2892C51.7809 46.2892 48.6939 43.2034 48.7155 39.4109L48.7498 33.363C48.7749 29.0186 52.3256 25.5098 56.6965 25.5098C61.101 25.5098 64.6655 29.0705 64.6433 33.4482L64.6114 39.665C64.5856 44.7079 60.4653 48.7826 55.3916 48.7828C50.2993 48.7828 46.1709 44.6793 46.1709 39.6179V33.6698C46.1709 28.0233 50.7937 23.4551 56.4744 23.4879C62.1086 23.5205 66.6587 28.0697 66.6587 33.6698V40.7153C66.6587 46.5989 61.8367 51.3565 55.9175 51.3128L53.3402 51.2941C51.9949 51.2842 50.7015 51.8105 49.7502 52.756L48.8634 51.8745C50.0521 50.6929 51.668 50.0349 53.3491 50.0474L55.9265 50.066C61.1494 50.1047 65.4044 45.9068 65.4044 40.7153Z" fill="#3C8CF4"/>
<path d="M15.8463 30.3204C16.1706 29.9909 16.6965 29.9907 17.0208 30.3204C17.3451 30.6502 17.3449 31.1849 17.0208 31.5147L13.1525 35.4481H24.8522C25.3108 35.4482 25.6828 35.8263 25.6828 36.2927C25.6828 36.7591 25.3108 37.1372 24.8522 37.1373H13.1525L17.0208 41.0707C17.3449 41.4005 17.3451 41.9352 17.0208 42.265C16.6965 42.5947 16.1706 42.5945 15.8463 42.265L10.5602 36.8898C10.2358 36.56 10.2358 36.0254 10.5602 35.6956L15.8463 30.3204Z" fill="#3C8CF4"/>
<path d="M85.3603 43.7772C85.3603 43.0786 85.9239 42.5122 86.6192 42.5122C87.3145 42.5122 87.8782 43.0786 87.8782 43.7772C87.8782 50.5004 86.2734 57.1275 83.1956 63.1164C80.1179 69.1053 75.6549 74.2857 70.1733 78.2343C64.6917 82.1828 58.3464 84.7881 51.6569 85.8386C45.9383 86.7366 40.1062 86.4751 34.5093 85.0843L38.3673 92.6194C38.6854 93.2406 38.4414 94.0036 37.8231 94.3232C37.2049 94.6425 36.4462 94.3981 36.1281 93.7772L30.9447 83.6538C30.6267 83.0327 30.8699 82.2696 31.4881 81.95L41.5639 76.743C42.1822 76.4234 42.9417 76.6677 43.2597 77.289C43.5776 77.9101 43.3337 78.6724 42.7155 78.992L35.4978 82.7225C40.6526 83.9504 46.0115 84.1648 51.2684 83.3393C57.5706 82.3496 63.546 79.8951 68.7061 76.178C73.8661 72.4611 78.064 67.5872 80.958 61.9561C83.8519 56.3249 85.3603 50.0954 85.3603 43.7772Z" fill="#3C8CF4"/>
<path d="M17.6622 12.3226C18.3573 12.3558 18.8939 12.9476 18.8609 13.6447L18.3227 25.0048C18.2896 25.7019 17.6993 26.2407 17.0042 26.2077C16.3091 26.1745 15.7718 25.5819 15.8048 24.8847L16.1904 16.7554C12.6953 20.5027 9.94781 24.9132 8.11579 29.7462C5.90532 35.5776 5.08929 41.8571 5.73411 48.0699C6.37896 54.2825 8.46691 60.2517 11.8257 65.4893C15.1846 70.727 19.7191 75.0841 25.0575 78.2053C25.6586 78.5569 25.8617 79.331 25.5112 79.9339C25.1606 80.5367 24.3887 80.7403 23.7875 80.3888C18.1038 77.0658 13.2788 72.4283 9.70577 66.8567C6.13279 61.2851 3.91332 54.9368 3.22772 48.3315C2.54215 41.7261 3.40972 35.0498 5.76036 28.8486C7.76093 23.5709 10.7873 18.7641 14.6505 14.7085L6.21406 14.307C5.51892 14.2739 4.98164 13.6819 5.0146 12.9849C5.04763 12.2878 5.63798 11.7491 6.33302 11.782L17.6622 12.3226Z" fill="#3C8CF4"/>
<path d="M42.5724 1.59605C49.3312 1.2375 56.0768 2.50379 62.2576 5.28957C68.4384 8.07536 73.8775 12.3012 78.1315 17.6192C81.7772 22.1768 84.4626 27.4264 86.0404 33.0447L90.6808 26.0412C91.0634 25.4636 91.846 25.3025 92.4294 25.6812C93.0128 26.06 93.1755 26.8348 92.793 27.4124L86.5577 36.8253C86.1751 37.4029 85.3926 37.564 84.8092 37.1852L75.3013 31.0123C74.7179 30.6335 74.5552 29.8587 74.9378 29.2811C75.3204 28.7035 76.1029 28.5425 76.6864 28.9212L83.5006 33.3451C81.9994 28.1849 79.5058 23.366 76.1509 19.172C72.1434 14.162 67.0234 10.1859 61.2114 7.56626C55.3994 4.94666 49.0583 3.75727 42.7073 4.09422C36.3563 4.4312 30.1728 6.285 24.6621 9.50584C24.0613 9.85698 23.2863 9.65932 22.9316 9.06451C22.577 8.46968 22.7766 7.70245 23.3774 7.35129C29.2357 3.92728 35.8136 1.95463 42.5724 1.59605Z" fill="#3C8CF4"/>
</svg>
