<svg width="96" height="96" viewBox="0 0 96 96" fill="none" xmlns="http://www.w3.org/2000/svg">
<path d="M47.6416 87.9317V49.8229L40.4071 42.5091H24.4185C23.9026 42.5091 23.4844 42.0909 23.4844 41.575C23.4845 41.0592 23.9027 40.641 24.4185 40.641H27.913L22.1162 34.7821C21.7534 34.4153 21.7568 33.824 22.1235 33.4612C22.4902 33.0984 23.0815 33.1018 23.4443 33.4685L30.5401 40.641H38.5581L34.3995 36.4377C34.0369 36.071 34.0403 35.4796 34.4068 35.1168C34.7735 34.754 35.3648 34.7574 35.7276 35.1241L48.9697 48.5094C49.3156 48.8591 49.5096 49.331 49.5097 49.8229V87.9317C49.5097 88.4476 49.0915 88.8658 48.5756 88.8658C48.0598 88.8657 47.6416 88.4475 47.6416 87.9317ZM52.5554 87.9317V36.6018L37.7034 22.8061C37.3257 22.455 37.3041 21.8641 37.6551 21.4862C38.0062 21.1082 38.597 21.0868 38.975 21.4379L42.382 24.6022L48.2983 18.1777C48.6478 17.7985 49.2388 17.7746 49.6182 18.1239C49.9975 18.4734 50.0214 19.0644 49.6721 19.4438L43.7502 25.8729L53.827 35.2327C54.2075 35.5861 54.4236 36.0825 54.4236 36.6018V40.2004L61.5604 33.2989L54.0706 26.1073C53.6985 25.75 53.6868 25.1585 54.0441 24.7865C54.4014 24.4144 54.9928 24.4018 55.3649 24.7591L58.8066 28.0648L63.8929 23.109C64.2623 22.7489 64.8536 22.756 65.2137 23.1254C65.5737 23.4948 65.5657 24.0861 65.1964 24.4462L60.1548 29.3601L62.9041 31.9999L71.6746 23.5204C72.0455 23.1618 72.6368 23.1715 72.9954 23.5422C73.354 23.9131 73.3444 24.5045 72.9736 24.8631L54.4236 42.7992V87.9317C54.4236 88.4475 54.0053 88.8657 53.4895 88.8658C52.9736 88.8658 52.5554 88.4476 52.5554 87.9317ZM57.4684 87.9317V55.2038C57.4684 54.712 57.6626 54.24 58.0084 53.8903L64.0196 47.8134V36.6082C64.0197 36.0925 64.438 35.6743 64.9537 35.6742C65.4695 35.6742 65.8877 36.0924 65.8878 36.6082V45.9243L70.8409 40.9183C71.2036 40.5516 71.795 40.5485 72.1617 40.911C72.5285 41.2738 72.5318 41.865 72.169 42.2318L70.4669 43.9522H82.5605C83.0763 43.9522 83.4945 44.3704 83.4946 44.8862C83.4946 45.4021 83.0764 45.8203 82.5605 45.8203H68.6188L59.3365 55.2038V87.9317C59.3365 88.4476 58.9183 88.8658 58.4025 88.8658C57.8867 88.8657 57.4684 88.4475 57.4684 87.9317Z" fill="#31BB8E"/>
<path d="M12.6297 34.437C17.4753 32.61 22.5377 37.2941 21.0921 42.2668L20.1964 42.0059L20.5253 42.8794C15.6795 44.7066 10.6169 40.0225 12.0629 35.0497L12.9593 35.3099L12.6297 34.437ZM19.4057 41.2743C19.9587 38.1149 16.8576 35.2455 13.7507 36.0421C13.1965 39.2022 16.298 42.0716 19.4057 41.2743Z" fill="#31BB8E"/>
<path d="M26.1538 18.8109C30.786 21.1268 30.7861 28.024 26.1538 30.3399L25.7369 29.5062L25.32 30.3399C20.6877 28.024 20.6878 21.1268 25.32 18.8109L25.7369 19.6446L26.1538 18.8109ZM25.7378 28.4271C28.432 26.687 28.4319 22.463 25.7369 20.7237C23.0416 22.4633 23.0425 26.6875 25.7378 28.4271Z" fill="#31BB8E"/>
<path d="M17.7643 52.7715C16.1263 47.8584 21.0034 42.9813 25.9165 44.6193L25.6218 45.5036L26.5061 45.2088C28.1439 50.1219 23.2669 54.999 18.3539 53.361L18.6486 52.4767L17.7643 52.7715ZM24.8587 46.2653C21.7232 45.5901 18.7356 48.5775 19.411 51.713C22.5473 52.3894 25.5349 49.4016 24.8587 46.2653Z" fill="#31BB8E"/>
<path d="M73.4647 49.2892C78.3777 47.6512 83.2549 52.5283 81.6169 57.4414L80.7326 57.1466L81.0274 58.0309C76.1143 59.6689 71.2372 54.7918 72.8751 49.8787L73.7595 50.1735L73.4647 49.2892ZM79.9702 56.3829C80.6449 53.2475 77.658 50.2607 74.5225 50.9365C73.8466 54.0724 76.8343 57.0588 79.9702 56.3829Z" fill="#31BB8E"/>
<path d="M63.1898 54.8937C68.1028 53.2557 72.9799 58.1328 71.342 63.0459L70.4577 62.7511L70.7524 63.6354C65.8393 65.2734 60.9623 60.3963 62.6002 55.4832L63.4845 55.778L63.1898 54.8937ZM69.6946 61.9881C70.3699 58.8524 67.3833 55.8652 64.2476 56.541C63.5717 59.6767 66.5589 62.6633 69.6946 61.9881Z" fill="#31BB8E"/>
<path d="M75.676 41.5619C74.0382 36.6489 78.9152 31.772 83.8282 33.4096L83.5328 34.2946L84.4184 33.9998C86.0559 38.9127 81.179 43.7897 76.2662 42.152L76.5609 41.2664L75.676 41.5619ZM82.771 35.0563C79.6354 34.381 76.6478 37.3684 77.3233 40.5041C80.4594 41.1802 83.447 38.1924 82.771 35.0563Z" fill="#31BB8E"/>
<path d="M71.0889 39.6804C66.457 37.3645 66.4571 30.4675 71.0889 28.1514L71.5057 28.9861L71.9235 28.1514C76.5556 30.4674 76.5557 37.3646 71.9235 39.6804L71.5057 38.8457L71.0889 39.6804ZM71.5057 30.0633C68.8111 31.803 68.811 36.028 71.5057 37.7676C74.2016 36.0281 74.2014 31.8029 71.5057 30.0633Z" fill="#31BB8E"/>
<path d="M58.0134 23.8014C53.3811 21.4856 53.3811 14.5883 58.0134 12.2724L58.4303 13.1062L58.8472 12.2724C63.4794 14.5884 63.4794 21.4856 58.8472 23.8014L58.4303 22.9677L58.0134 23.8014ZM58.4294 14.1844C55.7348 15.9241 55.7347 20.149 58.4294 21.8886C61.1253 20.1492 61.1252 15.9239 58.4294 14.1844Z" fill="#31BB8E"/>
<path d="M39.5836 26.5283C41.2216 31.4414 36.3445 36.3185 31.4314 34.6805L31.7262 33.7962L30.8419 34.091C29.2039 29.1779 34.081 24.3008 38.9941 25.9388L38.6993 26.8231L39.5836 26.5283ZM32.4898 33.0338C35.6253 33.7085 38.6121 30.7216 37.9363 27.5861C34.8003 26.9103 31.814 29.8979 32.4898 33.0338Z" fill="#31BB8E"/>
<path d="M36.1013 11.9263C41.0144 10.2883 45.8915 15.1654 44.2535 20.0785L43.3692 19.7837L43.664 20.668C38.7509 22.306 33.8738 17.4289 35.5118 12.5158L36.3961 12.8106L36.1013 11.9263ZM42.6062 19.0207C43.2814 15.885 40.2948 12.8978 37.1591 13.5736C36.4833 16.7093 39.4705 19.6959 42.6062 19.0207Z" fill="#31BB8E"/>
<path d="M76.0706 77.7055C81.6223 72.1537 85.4033 65.0805 86.9351 57.3801C88.4668 49.6794 87.6803 41.6969 84.6756 34.443C81.671 27.1894 76.5834 20.9894 70.0553 16.6274C63.527 12.2653 55.8515 9.93738 48 9.93738C40.1485 9.93738 32.473 12.2653 25.9447 16.6274C19.4166 20.9894 14.329 27.1894 11.3244 34.443C8.31974 41.6969 7.53318 49.6794 9.06492 57.3801C10.5967 65.0805 14.3777 72.1537 19.9294 77.7055C20.4765 78.2526 20.4765 79.1397 19.9294 79.6869C19.3822 80.2341 18.4951 80.2341 17.9479 79.6869C12.0042 73.7432 7.95645 66.1705 6.31656 57.9264C4.6767 49.6822 5.51865 41.1369 8.73533 33.371C11.9521 25.6052 17.3992 18.9669 24.3883 14.297C31.3774 9.6271 39.5944 7.13419 48 7.13419C56.4056 7.13419 64.6226 9.6271 71.6117 14.297C78.6008 18.9669 84.0479 25.6052 87.2647 33.371C90.4813 41.1369 91.3233 49.6822 89.6834 57.9264C88.0435 66.1705 83.9958 73.7432 78.0521 79.6869C77.5049 80.2341 76.6178 80.2341 76.0706 79.6869C75.5234 79.1397 75.5234 78.2526 76.0706 77.7055Z" fill="#31BB8E"/>
<path d="M34.9336 57.6004C34.9336 56.2968 33.8765 55.2398 32.5729 55.2397C31.2692 55.2397 30.2122 56.2967 30.2122 57.6004C30.2123 58.904 31.2693 59.9611 32.5729 59.9611V61.8293L32.3549 61.8238C30.1926 61.7141 28.4589 59.9798 28.3495 57.8175L28.344 57.6004C28.344 55.265 30.2374 53.3716 32.5729 53.3716L32.79 53.3771C35.0244 53.4902 36.8017 55.3379 36.8017 57.6004L36.7962 57.8175C36.6832 60.0519 34.8353 61.8292 32.5729 61.8293V59.9611C33.8764 59.961 34.9335 58.9039 34.9336 57.6004Z" fill="#31BB8E"/>
<path d="M41.955 55.8829C42.9037 54.9343 44.4417 54.9343 45.3903 55.8829C46.3389 56.8315 46.3389 58.3695 45.3903 59.3181L39.6226 65.0858C38.922 65.7865 38.528 66.7375 38.528 67.7284V85.6152C38.5279 86.8608 37.5178 87.871 36.2722 87.871C35.0268 87.8707 34.0174 86.8606 34.0173 85.6152V76.3648C34.0172 75.5671 33.3702 74.9209 32.5724 74.9209C31.7749 74.9211 31.1285 75.5673 31.1284 76.3648V85.6152C31.1284 86.8605 30.1188 87.8705 28.8735 87.871C27.6279 87.871 26.6178 86.8608 26.6177 85.6152V67.7284C26.6177 66.7376 26.2236 65.7865 25.5231 65.0858L19.7554 59.3181C18.8068 58.3695 18.8068 56.8315 19.7554 55.8829C20.7041 54.9344 22.2421 54.9343 23.1907 55.8829L28.9584 61.6506C29.659 62.3511 30.6102 62.7452 31.6009 62.7452H33.5448C34.5356 62.7452 35.4867 62.3511 36.1874 61.6506L41.955 55.8829ZM44.0695 57.2037C43.8504 56.9846 43.4949 56.9846 43.2759 57.2037L37.5082 62.9714C36.4572 64.0223 35.0311 64.6133 33.5448 64.6133H31.6009C30.1147 64.6133 28.6886 64.0222 27.6375 62.9714L21.8699 57.2037C21.6508 56.9847 21.2954 56.9848 21.0763 57.2037C20.8572 57.4228 20.8572 57.7782 21.0763 57.9973L26.844 63.765C27.8948 64.816 28.4859 66.2421 28.4859 67.7284V85.6152C28.486 85.8291 28.6596 86.0029 28.8735 86.0029C29.087 86.0024 29.2602 85.8288 29.2603 85.6152V76.3648C29.2604 74.5362 30.7422 73.054 32.5706 73.0527H32.5742C34.403 73.0536 35.8853 74.5359 35.8854 76.3648V85.6152C35.8855 85.8289 36.0586 86.0025 36.2722 86.0029C36.4861 86.0029 36.6598 85.8291 36.6599 85.6152V67.7284C36.6599 66.2421 37.2509 64.816 38.3018 63.765L44.0695 57.9973C44.2885 57.7782 44.2885 57.4228 44.0695 57.2037Z" fill="#31BB8E"/>
<path d="M62.7526 80.2659C63.1173 79.9012 63.7086 79.9011 64.0734 80.2659L66.8756 83.0681C67.2402 83.4328 67.2402 84.0242 66.8756 84.3889C66.5108 84.7537 65.9195 84.7536 65.5548 84.3889L62.7526 81.5867C62.3878 81.2219 62.3878 80.6307 62.7526 80.2659ZM74.4275 70.4582C74.7923 70.0935 75.3835 70.0934 75.7483 70.4582L77.6164 72.3263C77.9812 72.6911 77.9812 73.2824 77.6164 73.6472C77.2517 74.0119 76.6604 74.0119 76.2956 73.6472L74.4275 71.779C74.0627 71.4142 74.0627 70.823 74.4275 70.4582ZM65.5548 68.5901C65.9195 68.2254 66.5108 68.2253 66.8756 68.5901L69.6778 71.3923C70.0424 71.757 70.0424 72.3483 69.6778 72.7131C69.313 73.0778 68.7217 73.0778 68.357 72.7131L65.5548 69.9109C65.19 69.5461 65.19 68.9548 65.5548 68.5901ZM21.6527 67.189C22.0175 66.8242 22.6088 66.8242 22.9735 67.189C23.3383 67.5537 23.3383 68.145 22.9735 68.5098L19.7043 71.779C19.3395 72.1438 18.7482 72.1438 18.3835 71.779C18.0187 71.4142 18.0187 70.823 18.3835 70.4582L21.6527 67.189ZM66.9549 49.9087C67.3197 49.544 67.911 49.544 68.2758 49.9087L71.078 52.7109C71.4427 53.0757 71.4427 53.667 71.078 54.0318C70.7132 54.3965 70.1219 54.3965 69.7571 54.0318L66.9549 51.2296C66.5902 50.8648 66.5902 50.2735 66.9549 49.9087ZM42.2022 49.9087C42.567 49.544 43.1583 49.544 43.523 49.9087C43.8877 50.2735 43.8877 50.8648 43.523 51.2296L41.6549 53.0977C41.2901 53.4624 40.6988 53.4624 40.334 53.0977C39.9693 52.7329 39.9693 52.1416 40.334 51.7769L42.2022 49.9087ZM33.7965 45.7054C34.1613 45.3408 34.7526 45.3407 35.1173 45.7054C35.4819 46.0702 35.4819 46.6615 35.1173 47.0263L31.8481 50.2955C31.4834 50.6602 30.892 50.6601 30.5273 50.2955C30.1625 49.9307 30.1625 49.3394 30.5273 48.9747L33.7965 45.7054ZM45.4714 32.6285C45.8362 32.2637 46.4275 32.2637 46.7922 32.6285C47.157 32.9933 47.157 33.5846 46.7922 33.9493L43.523 37.2186C43.1583 37.5833 42.567 37.5833 42.2022 37.2186C41.8374 36.8538 41.8374 36.2625 42.2022 35.8977L45.4714 32.6285Z" fill="#31BB8E"/>
<path d="M24.6485 25.8163V23.0141C24.6485 22.4982 25.0667 22.08 25.5826 22.08C26.0984 22.08 26.5166 22.4982 26.5166 23.0141V25.8163C26.5166 26.3321 26.0984 26.7503 25.5826 26.7503C25.0667 26.7503 24.6485 26.3321 24.6485 25.8163Z" fill="#31BB8E"/>
<path d="M65.0867 57.3812C65.4515 57.0164 66.0428 57.0164 66.4076 57.3812L68.2757 59.2493C68.6405 59.6141 68.6405 60.2053 68.2757 60.5701C67.9109 60.9349 67.3196 60.9349 66.9549 60.5701L65.0867 58.702C64.722 58.3372 64.722 57.7459 65.0867 57.3812ZM75.3615 51.7768C75.7262 51.412 76.3175 51.412 76.6823 51.7768L79.0175 54.1119C79.3822 54.4767 79.3822 55.068 79.0175 55.4328C78.6527 55.7975 78.0614 55.7975 77.6966 55.4328L75.3615 53.0976C74.9967 52.7328 74.9967 52.1415 75.3615 51.7768ZM22.5867 47.1064C22.9515 46.7416 23.5427 46.7416 23.9075 47.1064C24.2723 47.4712 24.2723 48.0625 23.9075 48.4272L21.5724 50.7624C21.2076 51.1272 20.6163 51.1272 20.2515 50.7624C19.8867 50.3976 19.8867 49.8064 20.2515 49.4416L22.5867 47.1064ZM14.5778 36.9083C14.9001 36.5055 15.4885 36.4401 15.8913 36.7624L18.2265 38.6305C18.6293 38.9528 18.6947 39.5412 18.3724 39.944C18.0502 40.3469 17.4617 40.4122 17.0589 40.09L14.7237 38.2218C14.3209 37.8996 14.2555 37.3111 14.5778 36.9083ZM80.4988 35.8976C80.8636 35.5328 81.4549 35.5328 81.8197 35.8976C82.1844 36.2624 82.1844 36.8537 81.8197 37.2184L79.4845 39.5536C79.1197 39.9184 78.5284 39.9184 78.1637 39.5536C77.7989 39.1888 77.7989 38.5976 78.1637 38.2328L80.4988 35.8976ZM70.4175 35.1569V32.3547C70.4175 31.8389 70.8357 31.4207 71.3515 31.4207C71.8674 31.4207 72.2856 31.8389 72.2856 32.3547V35.1569C72.2856 35.6728 71.8674 36.091 71.3515 36.091C70.8357 36.091 70.4175 35.6728 70.4175 35.1569ZM35.6636 28.4251C36.0284 28.0603 36.6197 28.0603 36.9845 28.4251C37.3492 28.7899 37.3492 29.3811 36.9845 29.7459L34.6493 32.0811C34.2845 32.4459 33.6932 32.4459 33.3285 32.0811C32.9637 31.7163 32.9637 31.125 33.3285 30.7603L35.6636 28.4251ZM57.3405 19.2778V16.0086C57.3405 15.4927 57.7587 15.0745 58.2746 15.0745C58.7905 15.0745 59.2087 15.4927 59.2087 16.0086V19.2778C59.2087 19.7937 58.7905 20.2119 58.2746 20.2119C57.7587 20.2119 57.3405 19.7937 57.3405 19.2778ZM37.9988 14.4141C38.3636 14.0493 38.9548 14.0493 39.3196 14.4141L41.6548 16.7493C42.0196 17.114 42.0196 17.7053 41.6548 18.0701C41.29 18.4349 40.6987 18.4349 40.334 18.0701L37.9988 15.7349C37.634 15.3701 37.634 14.7789 37.9988 14.4141Z" fill="#31BB8E"/>
</svg>
