<svg width="128" height="128" viewBox="0 0 128 128" fill="none" xmlns="http://www.w3.org/2000/svg">
<path d="M67.8426 58.792C68.0132 58.6214 68.2897 58.6214 68.4602 58.792L71.2396 61.5714C71.4102 61.7419 71.4102 62.0184 71.2396 62.189L68.4602 64.9684C68.2897 65.1389 68.0132 65.1389 67.8426 64.9684C67.672 64.7978 67.672 64.5213 67.8426 64.3507L69.8764 62.317H67.8426L67.1755 63.0284L66.7208 62.305L65.4616 64.1938L64.6333 61.5458L64.2221 62.1318L64.0916 62.317H59.7553L61.7891 64.3507C61.9597 64.5213 61.9597 64.7978 61.7891 64.9684C61.6185 65.1389 61.342 65.1389 61.1715 64.9684L58.3921 62.189C58.2215 62.0184 58.2215 61.7419 58.3921 61.5714L61.1715 58.792C61.342 58.6214 61.6185 58.6214 61.7891 58.792C61.9597 58.9626 61.9597 59.2391 61.7891 59.4096L59.7553 61.4434H63.6377L64.9387 59.5939L65.7491 62.1873L66.743 60.6978L67.3128 61.6046L67.335 61.5816L67.4647 61.4434H69.8764L67.8426 59.4096C67.672 59.2391 67.672 58.9626 67.8426 58.792Z" fill="#005EFF"/>
<path d="M69.9832 29.2085C73.9719 26.821 79.2042 25.9849 84.3671 26.8079C89.5445 27.6333 94.7424 30.14 98.6478 34.5531C102.565 38.9794 105.115 45.2475 105.115 53.4643C105.115 66.0489 98.4911 76.7929 90.256 84.9578C82.0226 93.121 72.0406 98.8486 64.9722 101.418C64.9295 101.434 64.8858 101.447 64.8416 101.458C64.8275 101.462 64.8132 101.464 64.799 101.468C64.7687 101.474 64.7385 101.481 64.7077 101.486C64.702 101.486 64.6963 101.487 64.6906 101.487C64.6558 101.492 64.621 101.497 64.5857 101.498C64.5055 101.503 64.426 101.498 64.3477 101.488C64.344 101.488 64.3403 101.488 64.3366 101.487C64.2457 101.475 64.1569 101.453 64.0713 101.422C56.8246 98.8546 46.5852 93.1307 38.1374 84.9698C29.6899 76.809 22.885 66.0618 22.885 53.4643C22.8851 45.2379 25.5063 38.9654 29.5255 34.5403C33.5309 30.1302 38.8564 27.6301 44.1551 26.807C49.4398 25.9863 54.7939 26.8201 58.876 29.2008C61.3049 30.6175 63.2845 32.5895 64.5012 35.0615C65.6859 32.5973 67.6129 30.6274 69.9832 29.2085ZM83.9551 29.3961C79.2967 28.6535 74.7068 29.4356 71.3294 31.4572C67.9916 33.4552 65.8278 36.6546 65.8278 40.9393C65.8278 41.1201 65.7909 41.2927 65.7246 41.4494C65.6749 41.5669 65.6084 41.6757 65.5284 41.7727C65.3681 41.967 65.1527 42.1141 64.9065 42.1908C64.8246 42.2162 64.7393 42.2338 64.6514 42.2428C64.6073 42.2473 64.5627 42.2496 64.5175 42.2496L64.5166 42.2488V42.2496C63.7932 42.2494 63.2064 41.6627 63.2063 40.9393C63.2062 36.6715 60.9948 33.4706 57.5562 31.4649C54.0784 29.4365 49.3519 28.6522 44.5569 29.397C39.7756 30.1397 35.0199 32.3885 31.4654 36.3019C27.9247 40.2003 25.5058 45.8267 25.5057 53.4643C25.5057 65.0773 31.7838 75.1887 39.9579 83.0853C47.9545 90.8104 57.6255 96.2725 64.5098 98.7941C71.2097 96.2739 80.6242 90.8173 88.4108 83.0972C96.3711 75.2048 102.494 65.0901 102.494 53.4643C102.494 45.8174 100.134 40.1872 96.6849 36.2899C93.2243 32.3796 88.5992 30.1366 83.9551 29.3961Z" fill="#005EFF"/>
<path d="M55.653 47.6033C56.5163 47.0868 57.6109 46.9236 58.6584 47.0906C59.7154 47.2592 60.7853 47.7725 61.593 48.685C62.4086 49.6065 62.9119 50.8847 62.9119 52.4949C62.9118 54.9819 61.6034 57.0593 60.0617 58.5877C58.5192 60.1168 56.6508 61.1922 55.3006 61.6827C55.285 61.6883 55.2686 61.6925 55.2529 61.6972C55.241 61.7007 55.2291 61.7044 55.217 61.7074C55.2048 61.7105 55.1926 61.7134 55.1804 61.7159C55.1654 61.7191 55.1503 61.7221 55.1351 61.7245C54.9801 61.7485 54.8254 61.7292 54.6847 61.6741C53.3063 61.1812 51.4057 60.1134 49.8341 58.5954C48.2548 57.0698 46.9081 54.9903 46.908 52.4949C46.908 50.8784 47.4271 49.5972 48.2635 48.6765C49.0907 47.7659 50.183 47.2567 51.2579 47.0897C52.3236 46.9242 53.4361 47.0861 54.3145 47.5982C54.5627 47.743 54.7911 47.9184 54.9935 48.1194C55.1896 47.9209 55.4118 47.7477 55.653 47.6033ZM58.3829 48.8155C57.6719 48.7023 57.0062 48.8295 56.5504 49.1022C56.1212 49.3591 55.8766 49.7369 55.8765 50.2521C55.8765 50.3125 55.8703 50.3718 55.8586 50.4287C55.8061 50.6844 55.6418 50.8997 55.4192 51.0208C55.3697 51.0477 55.317 51.0694 55.2623 51.0865C55.235 51.095 55.207 51.102 55.1787 51.1078C55.1219 51.1194 55.0631 51.1257 55.0029 51.1257H55.0021C54.52 51.1254 54.1287 50.7343 54.1285 50.2521C54.1284 49.748 53.8834 49.3693 53.4341 49.1073C52.9586 48.8301 52.2649 48.7016 51.5257 48.8164C50.7958 48.9298 50.0833 49.2717 49.5568 49.8512C49.0394 50.4208 48.6551 51.271 48.6551 52.4949C48.6552 54.3339 49.6511 55.9893 51.048 57.3387C52.3276 58.5747 53.8618 59.4703 54.9978 59.9253C56.0996 59.4711 57.5885 58.5787 58.8316 57.3464C60.1899 55.9998 61.1647 54.3425 61.1648 52.4949C61.1647 51.2648 60.7887 50.4115 60.2852 49.8427C59.774 49.2651 59.0845 48.9274 58.3829 48.8155Z" fill="#005EFF"/>
<path d="M75.745 47.6033C76.6083 47.0866 77.7029 46.9237 78.7504 47.0906C79.8074 47.2591 80.8773 47.7726 81.6851 48.685C82.5007 49.6065 83.0039 50.8847 83.0039 52.4949C83.0039 54.982 81.6955 57.0593 80.1538 58.5877C78.6111 60.117 76.7429 61.1922 75.3927 61.6827C75.3715 61.6904 75.35 61.6963 75.3287 61.7023C75.323 61.7039 75.3174 61.7059 75.3116 61.7074C75.2952 61.7116 75.2786 61.7144 75.2622 61.7177C75.2508 61.7199 75.2395 61.7227 75.228 61.7245C75.0736 61.7484 74.9195 61.7295 74.7793 61.675C73.4007 61.1824 71.4987 60.1143 69.9261 58.5953C68.3469 57.0698 67.0001 54.9903 67 52.4949C67.0001 50.8784 67.5191 49.5972 68.3556 48.6765C69.1828 47.7659 70.275 47.2567 71.3499 47.0897C72.4156 46.9242 73.5282 47.0861 74.4065 47.5982C74.6549 47.7431 74.8839 47.9182 75.0864 48.1194C75.2825 47.921 75.5039 47.7477 75.745 47.6033ZM78.4749 48.8155C77.7639 48.7023 77.0982 48.8294 76.6425 49.1022C76.2133 49.3591 75.9686 49.7369 75.9685 50.2521C75.9684 50.7344 75.5772 51.1256 75.095 51.1257L75.0941 51.1248V51.1257C74.612 51.1254 74.2207 50.7343 74.2205 50.2521C74.2205 49.748 73.9755 49.3693 73.5261 49.1073C73.0507 48.8301 72.3569 48.7016 71.6178 48.8164C70.8879 48.9298 70.1753 49.2717 69.6488 49.8512C69.1314 50.4208 68.7472 51.271 68.7471 52.4949C68.7472 54.3339 69.7431 55.9893 71.14 57.3387C72.4199 58.575 73.9547 59.4703 75.0907 59.9253C76.1925 59.4711 77.6806 58.5787 78.9236 57.3464C80.2821 55.9997 81.2567 54.3426 81.2568 52.4949C81.2568 51.2648 80.8807 50.4115 80.3773 49.8427C79.866 49.2652 79.1765 48.9274 78.4749 48.8155Z" fill="#005EFF"/>
<path d="M57.0288 64.7526C57.0288 64.4879 57.0409 64.2253 57.0612 63.9652C56.7534 63.994 56.4418 64.0104 56.1271 64.0104C53.196 64.0104 50.5611 62.7448 48.7376 60.7363C47.9315 61.7564 47.427 63.0222 47.3539 64.4037L47.3445 64.7526C47.3447 68.3341 50.2482 71.2376 53.8297 71.2378V72.9849L53.4066 72.9739C49.197 72.7605 45.8218 69.3854 45.6085 65.1758L45.5974 64.7526C45.5974 62.3744 46.6062 60.2318 48.219 58.729C48.6005 58.3734 49.1968 58.5052 49.5071 58.9243C51.0067 60.9499 53.4134 62.2632 56.1271 62.2633C56.5341 62.2633 56.9346 62.2336 57.3257 62.1763C58.1045 62.0624 58.9489 62.8938 58.8467 63.6743L58.816 63.9405C58.7898 64.2076 58.7759 64.4786 58.7759 64.7526L58.7819 65.0546C58.8361 66.5567 59.2926 67.9563 60.047 69.1486C60.2547 69.4768 60.2621 69.905 60.0052 70.1962L59.7143 70.5093C58.2199 72.0367 56.1354 72.9849 53.8297 72.9849V71.2378C55.5307 71.2378 57.0769 70.5835 58.2351 69.5103C57.4662 68.0948 57.0289 66.4727 57.0288 64.7526Z" fill="#005EFF"/>
<path d="M72.5742 64.7526C72.5742 64.4879 72.5622 64.2253 72.5418 63.9652C72.8497 63.994 73.1612 64.0104 73.4759 64.0104C76.407 64.0104 79.0419 62.7448 80.8654 60.7363C81.6716 61.7564 82.176 63.0222 82.2491 64.4037L82.2585 64.7526C82.2583 68.3341 79.3549 71.2376 75.7733 71.2378V72.9849L76.1964 72.9739C80.406 72.7605 83.7812 69.3854 83.9945 65.1758L84.0056 64.7526C84.0056 62.3744 82.9968 60.2318 81.3841 58.729C81.0025 58.3734 80.4063 58.5052 80.0959 58.9243C78.5963 60.9499 76.1897 62.2632 73.4759 62.2633C73.0689 62.2633 72.6684 62.2336 72.2773 62.1763C71.4985 62.0624 70.6541 62.8938 70.7563 63.6743L70.787 63.9405C70.8132 64.2076 70.8271 64.4786 70.8271 64.7526L70.8211 65.0546C70.7669 66.5567 70.3105 67.9563 69.556 69.1486C69.3483 69.4768 69.3409 69.905 69.5978 70.1962L69.8887 70.5093C71.3831 72.0367 73.4676 72.9849 75.7733 72.9849V71.2378C74.0723 71.2378 72.5261 70.5835 71.368 69.5103C72.1368 68.0948 72.5742 66.4727 72.5742 64.7526Z" fill="#005EFF"/>
<path d="M43.3044 46.2144C43.3046 45.3687 43.7143 44.5367 44.474 44.062C50.5823 40.2462 58.25 40.5055 65.2527 44.5483L64.3792 46.0617C57.83 42.2808 50.8637 42.1304 45.3996 45.5438C45.1927 45.6732 45.0517 45.9202 45.0516 46.2144V76.4257H43.3044V46.2144Z" fill="#005EFF"/>
<path d="M86.3274 46.2144C86.3273 45.3687 85.9176 44.5367 85.1578 44.062C79.0495 40.2462 71.3819 40.5055 64.3791 44.5483L65.2527 46.0617C71.8018 42.2808 78.7681 42.1304 84.2322 45.5438C84.4391 45.6732 84.5801 45.9202 84.5803 46.2144V76.4257H86.3274V46.2144Z" fill="#005EFF"/>
<path d="M45.5788 76.6492C51.2913 73.4284 58.4605 73.9425 65.2527 77.864L64.3792 79.3774C57.9781 75.6817 51.4808 75.3273 46.437 78.1711C45.1637 78.8888 43.3044 78.0928 43.3044 76.4248H45.0516C45.0516 76.5017 45.089 76.585 45.206 76.6466C45.3296 76.7116 45.4712 76.7097 45.5788 76.6492Z" fill="#005EFF"/>
<path d="M84.0531 76.6492C78.3406 73.4284 71.1713 73.9425 64.3791 77.864C63.9613 78.1052 63.8181 78.6396 64.0592 79.0574C64.3004 79.4752 64.8349 79.6185 65.2527 79.3774C71.6538 75.6817 78.1511 75.3273 83.1948 78.1711C84.4682 78.8888 86.3274 78.0928 86.3274 76.4248C86.3272 75.9425 85.9362 75.5513 85.4538 75.5513C84.9715 75.5513 84.5804 75.9425 84.5803 76.4248C84.5803 76.5017 84.5429 76.585 84.4259 76.6466C84.3022 76.7116 84.1607 76.7097 84.0531 76.6492Z" fill="#005EFF"/>
<path d="M61.8677 76.7287C62.3502 76.7287 62.7413 77.1198 62.7413 77.6023C62.7413 78.0847 62.3502 78.4758 61.8677 78.4758C52.4522 78.4758 48.0799 79.9926 44.3581 82.0554C42.618 83.0198 40.3564 81.8427 40.3562 79.7572V50.1831C40.3562 49.9052 40.3484 49.3128 40.5559 48.7423C40.7848 48.1126 41.2793 47.5019 42.1972 47.2724C42.6653 47.1554 43.1397 47.4399 43.2567 47.9079C43.3735 48.3758 43.0889 48.8495 42.6212 48.9666C42.4659 49.0054 42.3844 49.0632 42.3363 49.1099C42.2843 49.1605 42.2369 49.2325 42.1981 49.3394C42.1108 49.5794 42.1034 49.8714 42.1034 50.1831V79.7572C42.1036 80.4157 42.8508 80.8932 43.511 80.5275C47.5405 78.2941 52.2169 76.7287 61.8677 76.7287Z" fill="#005EFF"/>
<path d="M67.7644 76.7287C67.2819 76.7287 66.8908 77.1198 66.8908 77.6023C66.8908 78.0847 67.2819 78.4758 67.7644 78.4758C77.1799 78.4758 81.5522 79.9926 85.274 82.0554C87.0141 83.0198 89.2757 81.8427 89.2758 79.7572V50.1831C89.2758 49.9052 89.2837 49.3128 89.0762 48.7423C88.8473 48.1126 88.3528 47.5019 87.4349 47.2724C86.9668 47.1554 86.4924 47.4399 86.3753 47.9079C86.2586 48.3758 86.5431 48.8495 87.0109 48.9666C87.1662 49.0054 87.2477 49.0632 87.2958 49.1099C87.3478 49.1605 87.3951 49.2325 87.434 49.3394C87.5213 49.5794 87.5287 49.8714 87.5287 50.1831V79.7572C87.5285 80.4157 86.7813 80.8932 86.1211 80.5275C82.0916 78.2941 77.4152 76.7287 67.7644 76.7287Z" fill="#005EFF"/>
<path d="M56.0802 82.4082C59.1092 82.4082 62.0971 83.3428 65.2492 85.1441C65.668 85.3834 65.8135 85.917 65.5742 86.3358C65.3348 86.7547 64.8013 86.9002 64.3824 86.6609C61.4196 84.9677 58.7293 84.1553 56.0802 84.1553C53.4311 84.1553 50.7408 84.9677 47.7779 86.6609C47.359 86.9002 46.8255 86.7547 46.5861 86.3358C46.3469 85.917 46.4923 85.3834 46.9112 85.1441C50.0632 83.3428 53.0511 82.4082 56.0802 82.4082Z" fill="#005EFF"/>
<path d="M73.5517 82.4082C70.5227 82.4082 67.5347 83.3428 64.3827 85.1441C63.9638 85.3834 63.8184 85.917 64.0576 86.3358C64.297 86.7547 64.8305 86.9002 65.2494 86.6609C68.2122 84.9677 70.9026 84.1553 73.5517 84.1553C76.2008 84.1553 78.8911 84.9677 81.8539 86.6609C82.2728 86.9002 82.8063 86.7547 83.0457 86.3358C83.2849 85.917 83.1395 85.3834 82.7207 85.1441C79.5686 83.3428 76.5807 82.4082 73.5517 82.4082Z" fill="#005EFF"/>
<path d="M53.9426 90.7987C56.2086 89.6657 57.9379 89.254 59.7282 89.5736C61.4455 89.8802 63.1175 90.8519 65.2656 92.1406C65.6793 92.3887 65.8131 92.9255 65.5651 93.3392C65.3169 93.7529 64.7802 93.8876 64.3665 93.6395C62.1469 92.3079 60.7613 91.5328 59.4211 91.2935C58.154 91.0672 56.8258 91.3107 54.724 92.3615C54.2925 92.5773 53.7676 92.4023 53.5519 91.9708C53.3361 91.5393 53.5111 91.0144 53.9426 90.7987Z" fill="#005EFF"/>
<path d="M75.6897 90.7987C73.4237 89.6657 71.6944 89.254 69.9041 89.5736C68.1869 89.8802 66.5148 90.8519 64.3667 92.1406C63.9531 92.3887 63.8192 92.9255 64.0673 93.3392C64.3154 93.7529 64.8521 93.8876 65.2658 93.6395C67.4855 92.3079 68.871 91.5328 70.2112 91.2935C71.4784 91.0672 72.8065 91.3107 74.9083 92.3615C75.3398 92.5773 75.8647 92.4023 76.0805 91.9708C76.2962 91.5393 76.1212 91.0144 75.6897 90.7987Z" fill="#005EFF"/>
<path d="M39.5541 34.965C44.9515 32.4847 51.9576 32.1437 59.2246 37.5934C59.6105 37.8828 59.6888 38.4299 59.3995 38.8159C59.11 39.2018 58.563 39.2801 58.177 38.9908C51.4672 33.9589 45.1512 34.3163 40.2843 36.5526C37.8303 37.6803 35.7349 39.2926 34.1506 40.958C32.5548 42.6355 31.5271 44.3132 31.1435 45.5408C30.9996 46.0012 30.5102 46.2577 30.0498 46.1141C29.5893 45.9702 29.3326 45.48 29.4765 45.0196C29.9665 43.4518 31.1774 41.548 32.8846 39.7534C34.6034 37.9467 36.876 36.1957 39.5541 34.965Z" fill="#005EFF"/>
<path d="M89.2042 34.965C83.8068 32.4847 76.8007 32.1437 69.5337 37.5934C69.1478 37.8828 69.0695 38.4299 69.3588 38.8159C69.6483 39.2018 70.1953 39.2801 70.5813 38.9908C77.2911 33.9589 83.6071 34.3163 88.474 36.5526C90.928 37.6803 93.0234 39.2926 94.6077 40.958C96.2035 42.6355 97.2312 44.3132 97.6148 45.5408C97.7587 46.0012 98.2481 46.2577 98.7085 46.1141C99.169 45.9702 99.4257 45.48 99.2818 45.0196C98.7918 43.4518 97.5809 41.548 95.8737 39.7534C94.1549 37.9467 91.8823 36.1957 89.2042 34.965Z" fill="#005EFF"/>
<path d="M29.4365 61.8798C29.4365 53.7801 33.4944 44.1662 43.5859 40.9552C44.0455 40.8092 44.5367 41.0638 44.6829 41.5234C44.8289 41.983 44.5744 42.4742 44.1148 42.6205C34.9881 45.5246 31.1836 54.2555 31.1836 61.8798C31.1836 62.3623 30.7925 62.7534 30.3101 62.7534C29.8276 62.7534 29.4365 62.3623 29.4365 61.8798Z" fill="#005EFF"/>
<path d="M99.3218 61.8798C99.3218 53.7801 95.2639 44.1662 85.1724 40.9552C84.7128 40.8092 84.2216 41.0638 84.0754 41.5234C83.9294 41.983 84.1839 42.4742 84.6435 42.6205C93.7702 45.5246 97.5747 54.2555 97.5747 61.8798C97.5747 62.3623 97.9658 62.7534 98.4482 62.7534C98.9307 62.7534 99.3218 62.3623 99.3218 61.8798Z" fill="#005EFF"/>
</svg>
