<svg width="96" height="96" viewBox="0 0 96 96" fill="none" xmlns="http://www.w3.org/2000/svg">
<path d="M51.8426 42.791C52.0132 42.6204 52.2897 42.6204 52.4603 42.791L55.2396 45.5704C55.4102 45.741 55.4102 46.0174 55.2396 46.188L52.4603 48.9674C52.2897 49.138 52.0132 49.138 51.8426 48.9674C51.6721 48.7968 51.6721 48.5203 51.8426 48.3497L53.8764 46.316H51.8426L51.1755 47.0275L50.7208 46.304L49.4617 48.1928L48.6333 45.5448L48.2221 46.1309L48.0916 46.316H43.7554L45.7891 48.3497C45.9597 48.5203 45.9597 48.7968 45.7891 48.9674C45.6185 49.138 45.3421 49.138 45.1715 48.9674L42.3921 46.188C42.2215 46.0174 42.2215 45.741 42.3921 45.5704L45.1715 42.791C45.3421 42.6204 45.6185 42.6204 45.7891 42.791C45.9597 42.9616 45.9597 43.2381 45.7891 43.4087L43.7554 45.4424H47.6378L48.9387 43.5929L49.7492 46.1863L50.743 44.6968L51.3129 45.6037L51.3351 45.5806L51.4647 45.4424H53.8764L51.8426 43.4087C51.6721 43.2381 51.6721 42.9616 51.8426 42.791Z" fill="#FF5688"/>
<path d="M53.9831 13.2085C57.9718 10.821 63.2041 9.98493 68.3671 10.8079C73.5444 11.6333 78.7423 14.14 82.6478 18.5531C86.5647 22.9794 89.115 29.2475 89.115 37.4643C89.115 50.0489 82.491 60.7929 74.2559 68.9578C66.0225 77.121 56.0406 82.8486 48.9721 85.4182C48.9294 85.434 48.8858 85.4469 48.8416 85.4583C48.8274 85.4619 48.8131 85.4645 48.7989 85.4676C48.7687 85.4743 48.7384 85.481 48.7076 85.4856C48.702 85.4864 48.6962 85.4865 48.6906 85.4873C48.6558 85.4919 48.6209 85.4965 48.5856 85.4984C48.5055 85.5026 48.426 85.4984 48.3476 85.4881C48.344 85.4876 48.3402 85.4878 48.3365 85.4873C48.2457 85.4746 48.1568 85.4526 48.0712 85.4216C40.8245 82.8546 30.5851 77.1307 22.1373 68.9698C13.6898 60.809 6.88495 50.0618 6.88495 37.4643C6.88504 29.2379 9.50624 22.9654 13.5254 18.5403C17.5309 14.1302 22.8563 11.6301 28.155 10.807C33.4397 9.98627 38.7938 10.8201 42.8759 13.2008C45.3048 14.6175 47.2844 16.5895 48.5012 19.0615C49.6859 16.5973 51.6128 14.6274 53.9831 13.2085ZM67.955 13.3961C63.2967 12.6535 58.7068 13.4356 55.3293 15.4572C51.9915 17.4552 49.8277 20.6546 49.8277 24.9393C49.8277 25.1201 49.7908 25.2927 49.7245 25.4494C49.6748 25.5669 49.6084 25.6757 49.5283 25.7727C49.368 25.967 49.1526 26.1141 48.9064 26.1908C48.8245 26.2162 48.7392 26.2338 48.6513 26.2428C48.6073 26.2473 48.5626 26.2496 48.5174 26.2496L48.5165 26.2488V26.2496C47.7931 26.2494 47.2063 25.6627 47.2062 24.9393C47.2062 20.6715 44.9947 17.4706 41.5562 15.4649C38.0784 13.4365 33.3518 12.6522 28.5568 13.397C23.7756 14.1397 19.0198 16.3885 15.4653 20.3019C11.9246 24.2003 9.50572 29.8267 9.50564 37.4643C9.50564 49.0773 15.7837 59.1887 23.9578 67.0853C31.9545 74.8104 41.6255 80.2725 48.5097 82.7941C55.2096 80.2739 64.6242 74.8173 72.4107 67.0972C80.371 59.2048 86.4944 49.0901 86.4944 37.4643C86.4943 29.8174 84.1336 24.1872 80.6848 20.2899C77.2242 16.3796 72.5991 14.1366 67.955 13.3961Z" fill="#FF5688"/>
<path d="M39.653 31.6041C40.5163 31.0876 41.6109 30.9245 42.6584 31.0914C43.7154 31.26 44.7854 31.7733 45.5931 32.6858C46.4087 33.6074 46.9119 34.8855 46.9119 36.4957C46.9118 38.9827 45.6034 41.0602 44.0618 42.5885C42.5192 44.1177 40.6508 45.193 39.3007 45.6835C39.2851 45.6892 39.2686 45.6933 39.2529 45.698C39.241 45.7016 39.2291 45.7052 39.2171 45.7082C39.2048 45.7114 39.1926 45.7142 39.1804 45.7168C39.1654 45.7199 39.1504 45.723 39.1352 45.7253C38.9801 45.7493 38.8254 45.73 38.6847 45.675C37.3063 45.182 35.4057 44.1142 33.8341 42.5962C32.2549 41.0706 30.9081 38.9911 30.908 36.4957C30.908 34.8792 31.4271 33.5981 32.2635 32.6773C33.0908 31.7668 34.183 31.2575 35.2579 31.0906C36.3236 30.9251 37.4361 31.0869 38.3145 31.599C38.5627 31.7438 38.7911 31.9192 38.9936 32.1202C39.1896 31.9217 39.4118 31.7485 39.653 31.6041ZM42.3829 32.8164C41.6719 32.7031 41.0062 32.8304 40.5505 33.103C40.1212 33.36 39.8766 33.7377 39.8765 34.253C39.8765 34.3133 39.8703 34.3726 39.8586 34.4296C39.8062 34.6852 39.6418 34.9005 39.4193 35.0216C39.3697 35.0485 39.317 35.0702 39.2623 35.0873C39.235 35.0958 39.2071 35.1028 39.1787 35.1086C39.1219 35.1203 39.0632 35.1265 39.003 35.1265H39.0021C38.52 35.1262 38.1287 34.7351 38.1285 34.253C38.1285 33.7488 37.8835 33.3702 37.4341 33.1081C36.9586 32.831 36.2649 32.7024 35.5258 32.8172C34.7958 32.9307 34.0833 33.2726 33.5568 33.852C33.0394 34.4216 32.6552 35.2718 32.6551 36.4957C32.6552 38.3348 33.6511 39.9901 35.048 41.3396C36.3276 42.5755 37.8619 43.4711 38.9978 43.9261C40.0997 43.4719 41.5885 42.5796 42.8316 41.3473C44.1899 40.0006 45.1647 38.3433 45.1648 36.4957C45.1648 35.2656 44.7887 34.4123 44.2853 33.8435C43.7741 33.2659 43.0845 32.9283 42.3829 32.8164Z" fill="#FF5688"/>
<path d="M59.745 31.6041C60.6082 31.0875 61.7028 30.9245 62.7504 31.0914C63.8073 31.26 64.8772 31.7734 65.685 32.6858C66.5006 33.6074 67.0038 34.8855 67.0039 36.4957C67.0038 38.9829 65.6955 41.0601 64.1537 42.5885C62.611 44.1178 60.7428 45.1931 59.3926 45.6835C59.3715 45.6912 59.35 45.6972 59.3286 45.7031C59.3229 45.7047 59.3173 45.7068 59.3116 45.7082C59.2952 45.7125 59.2786 45.7152 59.2621 45.7185C59.2507 45.7207 59.2395 45.7235 59.228 45.7253C59.0735 45.7493 58.9195 45.7303 58.7793 45.6758C57.4006 45.1832 55.4986 44.1151 53.926 42.5962C52.3468 41.0706 51 38.9911 50.9999 36.4957C51 34.8792 51.5191 33.5981 52.3555 32.6773C53.1827 31.7668 54.275 31.2575 55.3498 31.0906C56.4156 30.9251 57.5281 31.0869 58.4065 31.599C58.6549 31.7439 58.8838 31.9191 59.0864 32.1202C59.2824 31.9218 59.5038 31.7485 59.745 31.6041ZM62.4748 32.8164C61.7638 32.7032 61.0981 32.8302 60.6424 33.103C60.2132 33.36 59.9685 33.7377 59.9685 34.253C59.9683 34.7352 59.5771 35.1264 59.0949 35.1265L59.094 35.1257V35.1265C58.612 35.1262 58.2206 34.7351 58.2205 34.253C58.2204 33.7488 57.9754 33.3702 57.5261 33.1081C57.0506 32.831 56.3569 32.7024 55.6177 32.8172C54.8878 32.9307 54.1753 33.2726 53.6488 33.852C53.1314 34.4216 52.7471 35.2718 52.7471 36.4957C52.7472 38.3348 53.7431 39.9901 55.14 41.3396C56.4198 42.5758 57.9546 43.4712 59.0906 43.9261C60.1924 43.4719 61.6805 42.5795 62.9236 41.3472C64.282 40.0005 65.2567 38.3434 65.2568 36.4957C65.2567 35.2656 64.8807 34.4123 64.3772 33.8435C63.866 33.266 63.1764 32.9282 62.4748 32.8164Z" fill="#FF5688"/>
<path d="M41.0287 48.7523C41.0287 48.4876 41.0408 48.225 41.0612 47.9649C40.7533 47.9937 40.4417 48.0101 40.127 48.0101C37.1959 48.01 34.5611 46.7445 32.7376 44.736C31.9314 45.756 31.4269 47.0219 31.3539 48.4034L31.3445 48.7523C31.3446 52.3337 34.2481 55.2373 37.8297 55.2375V56.9846L37.4065 56.9735C33.1969 56.7602 29.8217 53.385 29.6084 49.1754L29.5974 48.7523C29.5974 46.374 30.6062 44.2315 32.2189 42.7286C32.6004 42.3731 33.1967 42.5049 33.5071 42.924C35.0066 44.9496 37.4133 46.2629 40.127 46.263C40.5341 46.263 40.9345 46.2333 41.3256 46.176C42.1045 46.0621 42.9489 46.8935 42.8467 47.674L42.816 47.9402C42.7898 48.2073 42.7759 48.4783 42.7759 48.7523L42.7818 49.0543C42.836 50.5564 43.2925 51.9559 44.047 53.1483C44.2546 53.4764 44.2621 53.9046 44.0052 54.1959L43.7143 54.5089C42.2198 56.0363 40.1353 56.9846 37.8297 56.9846V55.2375C39.5306 55.2374 41.0769 54.5832 42.235 53.51C41.4661 52.0945 41.0288 50.4724 41.0287 48.7523Z" fill="#FF5688"/>
<path d="M56.5742 48.7523C56.5742 48.4876 56.5621 48.225 56.5417 47.9649C56.8496 47.9937 57.1612 48.0101 57.4759 48.0101C60.407 48.01 63.0418 46.7445 64.8653 44.736C65.6715 45.756 66.176 47.0219 66.249 48.4034L66.2584 48.7523C66.2583 52.3337 63.3548 55.2373 59.7732 55.2375V56.9846L60.1964 56.9735C64.406 56.7602 67.7812 53.385 67.9945 49.1754L68.0056 48.7523C68.0056 46.374 66.9967 44.2315 65.384 42.7286C65.0025 42.3731 64.4062 42.5049 64.0958 42.924C62.5963 44.9496 60.1896 46.2629 57.4759 46.263C57.0688 46.263 56.6684 46.2333 56.2773 46.176C55.4984 46.0621 54.654 46.8935 54.7562 47.674L54.7869 47.9402C54.8131 48.2073 54.827 48.4783 54.827 48.7523L54.8211 49.0543C54.7669 50.5564 54.3104 51.9559 53.5559 53.1483C53.3483 53.4764 53.3408 53.9046 53.5977 54.1959L53.8886 54.5089C55.3831 56.0363 57.4676 56.9846 59.7732 56.9846V55.2375C58.0723 55.2374 56.526 54.5832 55.3679 53.51C56.1368 52.0945 56.5741 50.4724 56.5742 48.7523Z" fill="#FF5688"/>
<path d="M27.3045 30.2135C27.3046 29.3678 27.7143 28.5358 28.4741 28.0611C34.5823 24.2453 42.25 24.5047 49.2527 28.5474L48.3792 30.0608C41.83 26.2799 34.8637 26.1296 29.3997 29.543C29.1928 29.6723 29.0517 29.9194 29.0516 30.2135V60.4248H27.3045V30.2135Z" fill="#FF5688"/>
<path d="M70.3273 30.2135C70.3272 29.3678 69.9175 28.5358 69.1577 28.0611C63.0495 24.2453 55.3818 24.5047 48.3791 28.5474L49.2526 30.0608C55.8018 26.2799 62.7681 26.1296 68.2321 29.543C68.439 29.6723 68.5801 29.9194 68.5802 30.2135V60.4248H70.3273V30.2135Z" fill="#FF5688"/>
<path d="M29.5788 60.6488C35.2913 57.4281 42.4605 57.9421 49.2527 61.8636L48.3792 63.377C41.9781 59.6813 35.4808 59.327 30.437 62.1708C29.1637 62.8885 27.3045 62.0925 27.3045 60.4245H29.0516C29.0516 60.5014 29.089 60.5847 29.206 60.6463C29.3296 60.7113 29.4712 60.7094 29.5788 60.6488Z" fill="#FF5688"/>
<path d="M68.053 60.6488C62.3405 57.4281 55.1713 57.9421 48.3791 61.8636C47.9613 62.1048 47.818 62.6393 48.0592 63.0571C48.3004 63.4749 48.8348 63.6181 49.2526 63.377C55.6537 59.6813 62.151 59.327 67.1948 62.1708C68.4681 62.8885 70.3273 62.0925 70.3273 60.4245C70.3272 59.9422 69.9361 59.5509 69.4538 59.5509C68.9714 59.5509 68.5804 59.9422 68.5802 60.4245C68.5802 60.5014 68.5428 60.5847 68.4258 60.6463C68.3022 60.7113 68.1606 60.7094 68.053 60.6488Z" fill="#FF5688"/>
<path d="M45.8676 60.7297C46.35 60.7297 46.7411 61.1208 46.7411 61.6032C46.7411 62.0857 46.35 62.4768 45.8676 62.4768C36.4521 62.4768 32.0797 63.9935 28.3579 66.0564C26.6179 67.0208 24.3563 65.8437 24.3561 63.7581V34.1841C24.3561 33.9062 24.3483 33.3138 24.5557 32.7432C24.7847 32.1136 25.2792 31.5029 26.1971 31.2734C26.6651 31.1563 27.1396 31.4409 27.2566 31.9089C27.3734 32.3767 27.0888 32.8505 26.621 32.9676C26.4657 33.0064 26.3842 33.0641 26.3361 33.1109C26.2842 33.1614 26.2368 33.2335 26.1979 33.3404C26.1107 33.5804 26.1032 33.8724 26.1032 34.1841V63.7581C26.1034 64.4167 26.8506 64.8942 27.5108 64.5285C31.5403 62.2951 36.2167 60.7297 45.8676 60.7297Z" fill="#FF5688"/>
<path d="M51.7642 60.7297C51.2818 60.7297 50.8906 61.1208 50.8906 61.6032C50.8906 62.0857 51.2818 62.4768 51.7642 62.4768C61.1797 62.4768 65.5521 63.9935 69.2738 66.0564C71.0139 67.0208 73.2755 65.8437 73.2757 63.7581V34.1841C73.2757 33.9062 73.2835 33.3138 73.0761 32.7432C72.8471 32.1136 72.3526 31.5029 71.4347 31.2734C70.9667 31.1563 70.4922 31.4409 70.3752 31.9089C70.2584 32.3767 70.543 32.8505 71.0107 32.9676C71.166 33.0064 71.2475 33.0641 71.2957 33.1109C71.3476 33.1614 71.395 33.2335 71.4339 33.3404C71.5211 33.5804 71.5286 33.8724 71.5286 34.1841V63.7581C71.5284 64.4167 70.7811 64.8942 70.121 64.5285C66.0914 62.2951 61.4151 60.7297 51.7642 60.7297Z" fill="#FF5688"/>
<path d="M40.0802 66.4082C43.1092 66.4082 46.0971 67.3428 49.2492 69.1441C49.6681 69.3834 49.8135 69.917 49.5742 70.3358C49.3349 70.7547 48.8013 70.9002 48.3825 70.6609C45.4196 68.9677 42.7293 68.1553 40.0802 68.1553C37.4311 68.1553 34.7408 68.9677 31.7779 70.6609C31.3591 70.9002 30.8255 70.7547 30.5862 70.3358C30.3469 69.917 30.4924 69.3834 30.9112 69.1441C34.0632 67.3428 37.0512 66.4082 40.0802 66.4082Z" fill="#FF5688"/>
<path d="M57.5516 66.4082C54.5226 66.4082 51.5346 67.3428 48.3826 69.1441C47.9638 69.3834 47.8183 69.917 48.0576 70.3358C48.297 70.7547 48.8305 70.9002 49.2493 70.6609C52.2122 68.9677 54.9025 68.1553 57.5516 68.1553C60.2007 68.1553 62.891 68.9677 65.8539 70.6609C66.2728 70.9002 66.8063 70.7547 67.0456 70.3358C67.2849 69.917 67.1394 69.3834 66.7206 69.1441C63.5686 67.3428 60.5806 66.4082 57.5516 66.4082Z" fill="#FF5688"/>
<path d="M37.9426 74.7991C40.2086 73.6661 41.938 73.2544 43.7283 73.574C45.4455 73.8806 47.1176 74.8523 49.2657 76.141C49.6793 76.3891 49.8131 76.9259 49.5651 77.3396C49.3169 77.7533 48.7802 77.888 48.3665 77.6399C46.1469 76.3083 44.7614 75.5331 43.4212 75.2939C42.154 75.0676 40.8258 75.3111 38.724 76.3619C38.2925 76.5777 37.7677 76.4027 37.5519 75.9712C37.3362 75.5397 37.5111 75.0148 37.9426 74.7991Z" fill="#FF5688"/>
<path d="M59.6896 74.7991C57.4236 73.6661 55.6942 73.2544 53.9039 73.574C52.1867 73.8806 50.5146 74.8523 48.3665 76.141C47.9529 76.3891 47.8191 76.9259 48.0671 77.3396C48.3153 77.7533 48.852 77.888 49.2657 77.6399C51.4853 76.3083 52.8708 75.5331 54.2111 75.2939C55.4782 75.0676 56.8064 75.3111 58.9082 76.3619C59.3397 76.5777 59.8645 76.4027 60.0803 75.9712C60.2961 75.5397 60.1211 75.0148 59.6896 74.7991Z" fill="#FF5688"/>
<path d="M23.554 18.966C28.9514 16.4857 35.9575 16.1447 43.2245 21.5944C43.6105 21.8838 43.6888 22.4309 43.3994 22.8169C43.11 23.2028 42.5629 23.2811 42.1769 22.9917C35.4671 17.9599 29.1511 18.3172 24.2842 20.5536C21.8303 21.6813 19.7348 23.2936 18.1505 24.959C16.5547 26.6365 15.527 28.3142 15.1434 29.5418C14.9995 30.0021 14.5101 30.2587 14.0497 30.115C13.5892 29.9711 13.3326 29.481 13.4765 29.0205C13.9665 27.4528 15.1773 25.549 16.8845 23.7544C18.6034 21.9477 20.8759 20.1967 23.554 18.966Z" fill="#FF5688"/>
<path d="M73.2042 18.966C67.8067 16.4857 60.8007 16.1447 53.5337 21.5944C53.1477 21.8838 53.0694 22.4309 53.3588 22.8169C53.6482 23.2028 54.1953 23.2811 54.5812 22.9917C61.2911 17.9599 67.6071 18.3172 72.4739 20.5536C74.9279 21.6813 77.0234 23.2936 78.6076 24.959C80.2035 26.6365 81.2312 28.3142 81.6148 29.5418C81.7587 30.0021 82.2481 30.2587 82.7084 30.115C83.1689 29.9711 83.4256 29.481 83.2817 29.0205C82.7917 27.4528 81.5809 25.549 79.8736 23.7544C78.1548 21.9477 75.8822 20.1967 73.2042 18.966Z" fill="#FF5688"/>
<path d="M13.4365 45.879C13.4365 37.7793 17.4943 28.1653 27.5858 24.9544C28.0454 24.8084 28.5366 25.063 28.6829 25.5226C28.8289 25.9822 28.5743 26.4734 28.1147 26.6196C18.9881 29.5238 15.1836 38.2547 15.1836 45.879C15.1836 46.3614 14.7925 46.7525 14.31 46.7525C13.8276 46.7525 13.4365 46.3614 13.4365 45.879Z" fill="#FF5688"/>
<path d="M83.3217 45.879C83.3217 37.7793 79.2638 28.1653 69.1724 24.9544C68.7128 24.8084 68.2215 25.063 68.0753 25.5226C67.9293 25.9822 68.1839 26.4734 68.6435 26.6196C77.7701 29.5238 81.5746 38.2547 81.5746 45.879C81.5746 46.3614 81.9657 46.7525 82.4482 46.7525C82.9306 46.7525 83.3217 46.3614 83.3217 45.879Z" fill="#FF5688"/>
</svg>
