<svg width="96" height="96" viewBox="0 0 96 96" fill="none" xmlns="http://www.w3.org/2000/svg">
<path d="M18.9926 58.1646C17.1004 52.4884 22.7409 46.8477 28.4172 48.74L28.1222 49.6236L29.0065 49.3292C30.8987 55.0055 25.2581 60.6461 19.5819 58.7539L19.8762 57.8696L18.9926 58.1646ZM27.3668 50.379C23.4603 49.4501 19.7026 53.2077 20.6316 57.1142C24.5386 58.0439 28.2964 54.286 27.3668 50.379Z" fill="#31BB8E"/>
<path d="M50.0128 18.1937C44.6611 15.518 44.661 7.54103 50.0128 4.8653L50.429 5.69867L50.8462 4.8653C56.1979 7.54103 56.1978 15.518 50.8462 18.1937L50.429 17.3604L50.0128 18.1937ZM50.429 6.76702C47.0098 8.87253 47.0095 14.1877 50.429 16.2929C53.8494 14.1878 53.8491 8.87239 50.429 6.76702Z" fill="#31BB8E"/>
<path d="M13.9857 20.7605C19.6619 18.8683 25.3025 24.5088 23.4103 30.1851L22.5267 29.8901L22.821 30.7744C17.1447 32.6666 11.5042 27.026 13.3964 21.3498L14.2806 21.6441L13.9857 20.7605ZM21.7712 29.1347C22.7002 25.2282 18.9426 21.4705 15.0361 22.3995C14.1063 26.3065 17.8642 30.0643 21.7712 29.1347Z" fill="#31BB8E"/>
<path d="M27.9753 5.83817C33.6515 3.94598 39.2922 9.58652 37.3999 15.2628L36.5163 14.9678L36.8107 15.8521C31.1344 17.7443 25.4938 12.1037 27.386 6.42745L28.2703 6.72177L27.9753 5.83817ZM35.7609 14.2124C36.6898 10.3059 32.9322 6.54817 29.0257 7.47721C28.096 11.3842 31.8539 15.142 35.7609 14.2124Z" fill="#31BB8E"/>
<path d="M70.9753 8.29241C72.8675 13.9686 67.227 19.6093 61.5507 17.717L61.8456 16.8334L60.9614 17.1278C59.0692 11.4515 64.7098 5.81094 70.386 7.70313L70.0917 8.58737L70.9753 8.29241ZM62.6011 16.078C66.5076 17.0069 70.2653 13.2493 69.3363 9.34281C65.4292 8.41305 61.6714 12.171 62.6011 16.078Z" fill="#31BB8E"/>
<path d="M74.7059 26.9453C76.5981 32.6215 70.9575 38.2621 65.2812 36.3699L65.5762 35.4863L64.692 35.7806C62.7997 30.1043 68.4404 24.4638 74.1166 26.356L73.8223 27.2402L74.7059 26.9453ZM66.3316 34.7309C70.2381 35.6598 73.9959 31.9022 73.0668 27.9957C69.1598 27.0659 65.402 30.8238 66.3316 34.7309Z" fill="#31BB8E"/>
<path d="M90.1047 36.7592C87.429 42.1109 79.452 42.1109 76.7762 36.7592L77.6096 36.343L76.7762 35.9258C79.452 30.5741 87.429 30.5741 90.1047 35.9258L89.2713 36.343L90.1047 36.7592ZM78.678 36.343C80.7834 39.7621 86.0976 39.7622 88.203 36.343C86.0977 32.9229 80.7833 32.9229 78.678 36.343Z" fill="#31BB8E"/>
<path d="M77.269 59.5611C72.2759 62.8579 65.3676 58.8695 65.7262 52.8969L66.656 52.9531L66.1429 52.1751C71.136 48.8783 78.0442 52.8668 77.6856 58.8394L76.7554 58.7839L77.269 59.5611ZM67.5813 53.4873C67.6951 57.5011 72.2972 60.1582 75.8301 58.2497C75.717 54.2352 71.1145 51.5781 67.5813 53.4873Z" fill="#31BB8E"/>
<path d="M5.89532 45.2522C8.57104 39.9005 16.548 39.9004 19.2238 45.2522L18.3904 45.6684L19.2238 46.0856C16.548 51.4373 8.57104 51.4372 5.89532 46.0856L6.72869 45.6684L5.89532 45.2522ZM17.322 45.6684C15.2166 42.2493 9.90242 42.2492 7.79704 45.6684C9.90228 49.0885 15.2167 49.0884 17.322 45.6684Z" fill="#31BB8E"/>
<path d="M51.1284 91.601V54.6815C51.1285 54.0631 51.3743 53.4702 51.8115 53.0329L58.5896 46.2549V33.7771C58.5896 33.0045 59.2159 32.3782 59.9886 32.3782C60.7612 32.3782 61.3875 33.0045 61.3875 33.7771V43.457L66.4606 38.3839C67.0069 37.8376 67.8925 37.8376 68.4388 38.3839C68.9851 38.9302 68.9851 39.8158 68.4388 40.3621L67.0963 41.7046H80.0404C80.813 41.7046 81.4394 42.3309 81.4394 43.1036C81.4394 43.8762 80.813 44.5025 80.0404 44.5025H64.2984L53.9264 54.8746V91.601C53.9264 92.3737 53.3 93 52.5274 93C51.7548 93 51.1284 92.3737 51.1284 91.601ZM42.7346 91.601C42.7346 92.3737 42.1083 93 41.3357 93C40.5631 93 39.9367 92.3737 39.9367 91.601V48.8124L31.8963 40.772H13.8227C13.0501 40.772 12.4237 40.1456 12.4237 39.373C12.4237 38.6004 13.0501 37.974 13.8227 37.974H16.974L10.9683 31.9683C10.422 31.422 10.422 30.5364 10.9683 29.9901C11.5146 29.4438 12.4002 29.4438 12.9465 29.9901L20.9305 37.974H29.0984L24.9579 33.8336C24.4116 33.2873 24.4116 32.4017 24.9579 31.8554C25.5043 31.309 26.3898 31.309 26.9362 31.8554L42.0516 46.9708C42.4888 47.408 42.7346 48.001 42.7346 48.6193V91.601ZM48.3305 37.0305L55.6286 30.0493L47.3669 22.2011C46.8068 21.669 46.7839 20.783 47.3159 20.2228C47.848 19.6627 48.734 19.6398 49.2941 20.1718L52.9864 23.6793L58.5513 18.3138C59.1075 17.7778 59.9933 17.7942 60.5296 18.3503C61.0656 18.9064 61.0492 19.7923 60.4931 20.3285L55.0166 25.6083L57.6533 28.113L67.4151 18.7765C67.9734 18.2425 68.8593 18.262 69.3933 18.8202C69.9273 19.3785 69.9078 20.2644 69.3496 20.7984L48.3305 40.9031V91.601C48.3305 92.3737 47.7042 93 46.9315 93C46.1589 93 45.5326 92.3737 45.5326 91.601V33.9247L28.7313 18.486C28.1625 17.9632 28.1249 17.0785 28.6475 16.5096C29.1703 15.9407 30.055 15.9031 30.6239 16.4258L34.2634 19.7702L40.7783 12.7717C41.3047 12.2065 42.1902 12.1753 42.7556 12.7016C43.3208 13.228 43.352 14.1135 42.8257 14.6789L36.3236 21.6628L47.5764 32.0038C48.0569 32.4454 48.3305 33.0681 48.3305 33.7207V37.0305Z" fill="#31BB8E"/>
</svg>
