<svg width="96" height="96" viewBox="0 0 96 96" fill="none" xmlns="http://www.w3.org/2000/svg">
<path d="M89.1079 48.394C75.415 88.6338 20.5855 88.6338 6.89261 48.394L9.20795 47.6058C22.1485 85.6351 73.852 85.6351 86.7925 47.6058L89.1079 48.394Z" fill="#3C8CF4"/>
<path d="M89.1079 47.6058C75.415 7.36606 20.5855 7.36606 6.89261 47.6058L9.20795 48.394C22.1485 10.3647 73.852 10.3647 86.7925 48.394L89.1079 47.6058Z" fill="#3C8CF4"/>
<path d="M70.8288 47.9999C70.8288 35.3921 60.6081 25.1714 48.0002 25.1714C35.3924 25.1714 25.1717 35.3921 25.1717 47.9999C25.1717 60.6078 35.3924 70.8285 48.0002 70.8285V73.2744C34.0415 73.2744 22.7258 61.9586 22.7258 47.9999C22.7258 34.0412 34.0415 22.7255 48.0002 22.7255C61.9589 22.7255 73.2747 34.0412 73.2747 47.9999C73.2747 61.9586 61.9589 73.2744 48.0002 73.2744V70.8285C60.6081 70.8285 70.8288 60.6078 70.8288 47.9999Z" fill="#3C8CF4"/>
<path d="M59.4145 47.9999C59.4145 41.696 54.3042 36.5857 48.0002 36.5857C41.6963 36.5857 36.586 41.696 36.586 47.9999C36.586 54.3039 41.6963 59.4142 48.0002 59.4142V61.8601C40.3455 61.8601 34.14 55.6547 34.14 47.9999C34.14 40.3452 40.3455 34.1397 48.0002 34.1397C55.655 34.1397 61.8604 40.3452 61.8604 47.9999C61.8604 55.6547 55.655 61.8601 48.0002 61.8601V59.4142C54.3042 59.4142 59.4145 54.3039 59.4145 47.9999Z" fill="#3C8CF4"/>
<path d="M65.9369 47.9999C65.9369 38.0937 57.9064 30.0632 48.0002 30.0632C38.094 30.0632 30.0635 38.0937 30.0635 47.9999C30.0635 57.9061 38.094 65.9366 48.0002 65.9366V67.5672C37.1935 67.5672 28.4329 58.8067 28.4329 47.9999C28.4329 37.1932 37.1935 28.4326 48.0002 28.4326C58.807 28.4326 67.5675 37.1932 67.5675 47.9999C67.5675 58.8067 58.807 67.5672 48.0002 67.5672V65.9366C57.9064 65.9366 65.9369 57.9061 65.9369 47.9999Z" fill="#3C8CF4"/>
<path d="M89.8306 70.7393L87.7469 62.9597C87.5721 62.3073 87.9592 61.636 88.6116 61.4612C89.2638 61.2865 89.9343 61.6738 90.1092 62.3259L92.958 72.9575C93.1328 73.6099 92.7458 74.2811 92.0934 74.4559L81.4617 77.3047C80.8094 77.4795 80.1389 77.0916 79.9641 76.4393C79.7895 75.787 80.1765 75.1164 80.8288 74.9416L88.6076 72.8572L48 49.4116L7.39158 72.8572L15.172 74.9416C15.8241 75.1165 16.2112 75.7871 16.0367 76.4393C15.8619 77.0917 15.1906 77.4795 14.5382 77.3047L3.90663 74.4559C3.25439 74.281 2.86717 73.6098 3.04196 72.9575L5.89075 62.3259C6.06566 61.6738 6.73623 61.2867 7.3884 61.4612C8.04081 61.636 8.42868 62.3073 8.25386 62.9597L6.16863 70.7385L48 46.5875L89.8306 70.7393Z" fill="#3C8CF4"/>
<path d="M53.7074 47.9999C53.7074 44.848 51.1522 42.2928 48.0002 42.2928C44.8483 42.2928 42.2931 44.848 42.2931 47.9999C42.2931 51.1519 44.8483 53.7071 48.0002 53.7071V55.3377C43.9477 55.3377 40.6625 52.0525 40.6625 47.9999C40.6625 43.9474 43.9477 40.6622 48.0002 40.6622C52.0527 40.6622 55.338 43.9474 55.338 47.9999C55.338 52.0525 52.0527 55.3377 48.0002 55.3377V53.7071C51.1522 53.7071 53.7074 51.1519 53.7074 47.9999Z" fill="#3C8CF4"/>
</svg>
