<svg width="96" height="96" viewBox="0 0 96 96" fill="none" xmlns="http://www.w3.org/2000/svg">
<path d="M37.1128 16.8971C39.1531 15.6761 41.7679 15.2771 44.2979 15.6803C46.8455 16.0863 49.4169 17.3219 51.3553 19.5119C53.308 21.7181 54.535 24.799 54.535 28.7352C54.535 34.7966 51.3457 39.8981 47.5153 43.6954C43.6831 47.4942 39.0401 50.1635 35.7097 51.3733C35.6856 51.382 35.6607 51.3877 35.6365 51.3952C35.6111 51.4031 35.5859 51.4116 35.5601 51.4183C35.5267 51.4268 35.4931 51.4328 35.4596 51.4392C35.4422 51.4425 35.4249 51.4469 35.4073 51.4496C35.3805 51.4538 35.3536 51.4563 35.3267 51.4591C35.2996 51.4619 35.2725 51.466 35.2451 51.4674C35.2193 51.4688 35.1935 51.4673 35.1677 51.4674C35.1416 51.4675 35.1155 51.4686 35.0892 51.4674C35.0678 51.4665 35.0467 51.463 35.0254 51.4612C34.9924 51.4583 34.9591 51.4567 34.926 51.4517C34.9133 51.4498 34.9009 51.4466 34.8883 51.4444C34.8503 51.4378 34.8122 51.4309 34.7743 51.4214C34.7531 51.4161 34.7325 51.4087 34.7115 51.4026C34.6831 51.3942 34.654 51.3875 34.6257 51.3775C31.2171 50.171 26.4586 47.5064 22.5282 43.71C18.6022 39.9179 15.3212 34.8124 15.3212 28.7352C15.3212 24.7875 16.5849 21.701 18.5878 19.4962C20.5737 17.31 23.2026 16.0824 25.799 15.6792C28.3782 15.2788 31.0423 15.675 33.1222 16.8877C33.8911 17.3361 34.5787 17.9007 35.1457 18.5702C35.6962 17.9069 36.3639 17.3454 37.1128 16.8971ZM43.7915 18.8548C41.8804 18.5503 40.0534 18.8828 38.7629 19.6552C37.527 20.395 36.7758 21.5235 36.7686 23.0495C36.7686 23.0568 36.7696 23.0641 36.7696 23.0714C36.7696 23.6261 36.4887 24.1156 36.0613 24.4044C35.9759 24.4622 35.8842 24.5113 35.7882 24.552C35.5958 24.6334 35.3834 24.6785 35.1614 24.6786C35.106 24.6785 35.0512 24.6757 34.9972 24.6702C34.835 24.6537 34.68 24.6131 34.5357 24.552C34.4879 24.5317 34.4409 24.5097 34.3955 24.485C34.3043 24.4355 34.2186 24.3769 34.1392 24.3113C34.0996 24.2786 34.0614 24.2441 34.0251 24.2077C33.8798 24.0624 33.7622 23.8893 33.6809 23.6971C33.6606 23.6491 33.6421 23.5999 33.6265 23.5496C33.5951 23.4489 33.5736 23.3438 33.5627 23.2357C33.5572 23.1817 33.5543 23.1269 33.5543 23.0714C33.5541 21.5548 32.7941 20.4173 31.5035 19.6646C30.1648 18.8839 28.2706 18.5485 26.2918 18.8558C24.3298 19.1605 22.3999 20.0806 20.9671 21.6579C19.5512 23.2166 18.5355 25.5098 18.5355 28.7352C18.5355 33.6047 21.1704 37.9305 24.761 41.3987C28.1352 44.6578 32.1935 46.9969 35.1541 48.1443C38.0294 46.9983 41.9715 44.6644 45.2521 41.4123C48.7454 37.9493 51.3207 33.6203 51.3207 28.7352C51.3207 25.4983 50.3271 23.1995 48.9487 21.6422C47.556 20.0687 45.6852 19.1566 43.7915 18.8548Z" fill="#FF5688"/>
<path d="M63.2278 16.8961C65.2681 15.6751 67.8828 15.276 70.4128 15.6792C72.9604 16.0854 75.5319 17.3209 77.4702 19.5108C79.4229 21.717 80.65 24.7981 80.65 28.7341C80.65 34.7955 77.4606 39.8971 73.6303 43.6944C69.7982 47.4932 65.1551 50.1624 61.8247 51.3722C61.8073 51.3785 61.7888 51.3822 61.7713 51.3879C61.7384 51.3986 61.7055 51.4097 61.6719 51.4183C61.6428 51.4257 61.6132 51.4303 61.584 51.436C61.5631 51.4402 61.5424 51.4453 61.5212 51.4486C61.4933 51.4529 61.4654 51.4552 61.4375 51.458C61.4117 51.4607 61.3861 51.465 61.3601 51.4664C61.3342 51.4677 61.3084 51.4663 61.2827 51.4664C61.2562 51.4665 61.2297 51.4676 61.2032 51.4664C61.1825 51.4654 61.162 51.4629 61.1414 51.4612C61.1083 51.4584 61.0752 51.4556 61.042 51.4507C61.0237 51.448 61.0058 51.4436 60.9876 51.4402C60.9545 51.4342 60.9212 51.4286 60.8882 51.4204C60.873 51.4166 60.8583 51.411 60.8432 51.4068C60.8089 51.3971 60.7738 51.3885 60.7396 51.3764C57.331 50.1699 52.5724 47.5053 48.6421 43.709C44.7162 39.9169 41.4351 34.8113 41.4351 28.7341C41.4351 24.7865 42.6989 21.6999 44.7017 19.4951C46.6876 17.309 49.3166 16.0814 51.9129 15.6782C54.4921 15.2777 57.1562 15.674 59.2361 16.8867C60.005 17.3351 60.6926 17.8997 61.2597 18.5691C61.8102 17.9057 62.4787 17.3444 63.2278 16.8961ZM69.9064 18.8537C67.9954 18.5492 66.1684 18.8818 64.8778 19.6542C63.636 20.3975 62.8837 21.5332 62.8835 23.0704L62.8752 23.2347C62.8437 23.5448 62.7228 23.8277 62.5403 24.0602C62.3733 24.2733 62.1548 24.4439 61.9021 24.5509C61.7807 24.6023 61.6515 24.6374 61.517 24.6577C61.4385 24.6695 61.3583 24.6775 61.2764 24.6775L61.1121 24.6692C60.95 24.6527 60.795 24.612 60.6507 24.5509C60.4585 24.4696 60.2854 24.3521 60.1401 24.2067C60.0674 24.134 60.0012 24.0547 59.9434 23.9692C59.7701 23.7127 59.6693 23.4032 59.6693 23.0704C59.6691 21.5537 58.908 20.4163 57.6174 19.6636C56.2787 18.8829 54.3845 18.5475 52.4057 18.8548C50.4438 19.1595 48.5138 20.0796 47.081 21.6568C45.6652 23.2155 44.6494 25.5089 44.6494 28.7341C44.6494 33.6036 47.2844 37.9295 50.875 41.3977C54.249 44.6567 58.3075 46.9958 61.268 48.1433C64.1434 46.9973 68.0863 44.6636 71.3671 41.4113C74.8603 37.9483 77.4357 33.6192 77.4357 28.7341C77.4357 25.4974 76.442 23.1984 75.0637 21.6411C73.6711 20.0677 71.8001 19.1556 69.9064 18.8537Z" fill="#FF5688"/>
<path d="M40.5649 59.6842C40.5649 58.6224 40.6355 57.5754 40.7699 56.5473L40.7689 56.5452C40.7473 56.5136 40.7183 56.4784 40.6831 56.4437C40.6479 56.4091 40.6125 56.3801 40.5806 56.359L40.5795 56.3579C39.4388 56.5251 38.2733 56.6132 37.089 56.6132C29.5499 56.613 22.8265 53.1317 18.4311 47.7039C15.6022 50.7375 13.8386 54.7661 13.7206 59.2081L13.7143 59.6842C13.7145 69.3895 21.5827 77.2568 31.2882 77.2571C36.2406 77.257 40.7109 75.2112 43.9089 71.9104C41.7845 68.3274 40.565 64.1438 40.5649 59.6842ZM43.7928 60.449C43.9306 64.2582 45.0933 67.8064 47.0133 70.8254C47.5243 71.6291 47.5424 72.6794 46.9139 73.3951L46.5519 73.7969C42.7547 77.9018 37.3221 80.4721 31.2893 80.4724L30.7525 80.4651C19.5195 80.1807 10.5003 70.9857 10.5 59.6842C10.5 53.6531 13.0686 48.2219 17.1713 44.4247C18.1103 43.5557 19.5724 43.8804 20.3301 44.9112C24.1138 50.0583 30.2111 53.3987 37.089 53.399C38.1707 53.399 39.2331 53.3163 40.2698 53.1562C42.1784 52.8616 44.242 54.8929 43.9769 56.8058L43.8911 57.5152C43.8171 58.2281 43.7792 58.9517 43.7792 59.6842L43.7928 60.449Z" fill="#FF5688"/>
<path d="M55.4351 59.6842C55.4351 58.6224 55.3645 57.5754 55.2301 56.5473L55.2311 56.5452C55.2527 56.5136 55.2817 56.4784 55.3169 56.4437C55.3521 56.4091 55.3875 56.3801 55.4194 56.359L55.4205 56.3579C56.5612 56.5251 57.7267 56.6132 58.911 56.6132C66.4501 56.613 73.1735 53.1317 77.5689 47.7039C80.3978 50.7375 82.1614 54.7661 82.2794 59.2081L82.2857 59.6842C82.2855 69.3895 74.4173 77.2568 64.7118 77.2571C59.7594 77.257 55.2891 75.2112 52.0911 71.9104C54.2155 68.3274 55.435 64.1438 55.4351 59.6842ZM52.2072 60.449C52.0694 64.2582 50.9067 67.8064 48.9867 70.8254C48.4757 71.6291 48.4576 72.6794 49.0861 73.3951L49.4481 73.7969C53.2453 77.9018 58.6779 80.4721 64.7107 80.4724L65.2475 80.4651C76.4805 80.1807 85.4997 70.9857 85.5 59.6842C85.5 53.6531 82.9314 48.2219 78.8287 44.4247C77.8897 43.5557 76.4276 43.8804 75.6699 44.9112C71.8862 50.0583 65.7889 53.3987 58.911 53.399C57.8293 53.399 56.7669 53.3163 55.7302 53.1562C53.8216 52.8616 51.758 54.8929 52.0231 56.8058L52.1089 57.5152C52.1829 58.2281 52.2208 58.9517 52.2208 59.6842L52.2072 60.449Z" fill="#FF5688"/>
</svg>
