<svg width="96" height="96" viewBox="0 0 96 96" fill="none" xmlns="http://www.w3.org/2000/svg">
<path d="M55.033 18.8062C60.6401 16.6919 66.5043 22.1176 64.8312 27.8718L63.9354 27.6109L64.2643 28.4844C58.6572 30.5987 52.7931 25.1729 54.4662 19.4188L55.3626 19.679L55.033 18.8062ZM63.1501 26.8843C63.9279 22.9385 60.0208 19.3232 56.1473 20.405C55.3684 24.3513 59.276 27.9665 63.1501 26.8843Z" fill="#31BB8E"/>
<path d="M15.4317 65.9099C20.2775 64.0826 25.3402 68.7667 23.8941 73.7397L22.999 73.4794L23.3279 74.3516C18.482 76.179 13.4194 71.4948 14.8655 66.5219L15.7605 66.7821L15.4317 65.9099ZM22.2069 72.7466C22.76 69.587 19.6597 66.718 16.5526 67.515C15.999 70.6746 19.0998 73.543 22.2069 72.7466Z" fill="#31BB8E"/>
<path d="M42.5227 17.4351C42.4103 23.4265 35.1988 26.8645 30.4732 23.1795L31.0472 22.4441L30.1141 22.4261C30.2265 16.4347 37.4381 12.9967 42.1636 16.6817L41.5899 17.418L42.5227 17.4351ZM32.0131 21.9836C35.3902 24.1673 40.1955 21.8768 40.6249 17.878C37.2476 15.6932 32.4424 17.9843 32.0131 21.9836Z" fill="#31BB8E"/>
<path d="M74.4609 33.0253C80.4081 32.291 84.8297 38.945 81.8486 44.1434L81.0394 43.6789L81.1534 44.6053C75.2061 45.3397 70.7846 38.6856 73.7657 33.4873L74.5756 33.9512L74.4609 33.0253ZM80.4473 42.7877C82.1324 39.1362 79.1866 34.7024 75.1672 34.8416C73.4809 38.4935 76.4274 42.9272 80.4473 42.7877Z" fill="#31BB8E"/>
<path d="M79.3653 60.5535C82.9312 64.2641 80.6346 70.7222 75.5264 71.3481L75.4133 70.422L74.7412 71.0678C71.1752 67.3572 73.4719 60.8991 78.5801 60.2732L78.6943 61.1988L79.3653 60.5535ZM75.7758 69.4056C78.8651 68.6733 80.2656 64.7341 78.3316 62.216C75.2414 62.9478 73.841 66.8873 75.7758 69.4056Z" fill="#31BB8E"/>
<path d="M14.1971 44.4888C10.6957 39.6258 14.4071 32.5511 20.3985 32.668L20.3799 33.6008L21.1376 33.0558C24.639 37.9189 20.9275 44.9936 14.9362 44.8766L14.9539 43.9434L14.1971 44.4888ZM19.8828 34.5483C15.8707 34.8248 13.3974 39.5385 15.4506 42.9967C19.4636 42.7211 21.9365 38.0069 19.8828 34.5483Z" fill="#31BB8E"/>
<path d="M26.7643 61.2609C21.2346 58.9516 20.6915 50.9809 25.8569 47.943L26.3295 48.7474L26.6896 47.8863C32.2193 50.1956 32.7623 58.1662 27.597 61.2041L27.1234 60.3998L26.7643 61.2609ZM26.4023 49.8149C23.129 52.1515 23.4906 57.4624 27.0507 59.3332C30.3251 56.9969 29.963 51.6858 26.4023 49.8149Z" fill="#31BB8E"/>
<path d="M76.0706 80.3541C81.6223 74.8024 85.4033 67.7292 86.9351 60.0288C88.4668 52.3282 87.6803 44.3456 84.6756 37.0918C81.671 29.8382 76.5834 23.6382 70.0553 19.2762C63.527 14.9141 55.8515 12.5862 48 12.5862C40.1485 12.5862 32.473 14.9141 25.9447 19.2762C19.4166 23.6382 14.329 29.8382 11.3244 37.0918C8.31974 44.3456 7.53318 52.3282 9.06492 60.0288C10.5967 67.7292 14.3777 74.8024 19.9294 80.3541C20.4765 80.9013 20.4765 81.7884 19.9294 82.3356C19.3822 82.8828 18.4951 82.8828 17.9479 82.3356C12.0042 76.3919 7.95645 68.8192 6.31656 60.5751C4.6767 52.331 5.51865 43.7856 8.73533 36.0198C11.9521 28.254 17.3992 21.6157 24.3883 16.9458C31.3774 12.2759 39.5944 9.78302 48 9.78302C56.4056 9.78302 64.6226 12.2759 71.6117 16.9458C78.6008 21.6157 84.0479 28.254 87.2647 36.0198C90.4813 43.7856 91.3233 52.331 89.6834 60.5751C88.0435 68.8192 83.9958 76.3919 78.0521 82.3356C77.5049 82.8828 76.6178 82.8828 76.0706 82.3356C75.5234 81.7884 75.5234 80.9013 76.0706 80.3541Z" fill="#31BB8E"/>
<path d="M51.7365 31.7344C51.7365 29.155 49.6455 27.0641 47.0662 27.0641C44.4868 27.0641 42.3958 29.155 42.3958 31.7344C42.3958 34.3137 44.4868 36.4047 47.0662 36.4047V39.2069C42.9392 39.2069 39.5936 35.8613 39.5936 31.7344C39.5936 27.6074 42.9392 24.2619 47.0662 24.2619C51.1931 24.2619 54.5387 27.6074 54.5387 31.7344C54.5387 35.8613 51.1931 39.2069 47.0662 39.2069V36.4047C49.6455 36.4047 51.7365 34.3137 51.7365 31.7344Z" fill="#31BB8E"/>
<path d="M64.1291 30.1165C65.7079 28.5377 68.2677 28.5378 69.8466 30.1165C71.4255 31.6954 71.4255 34.2551 69.8466 35.834L58.605 47.0765C57.992 47.6895 57.6473 48.5211 57.6472 49.388V82.4807C57.6472 84.5442 55.9744 86.2169 53.9109 86.2169C51.8476 86.2168 50.1746 84.5441 50.1746 82.4807V66.1345C50.1745 64.5871 48.92 63.3323 47.3724 63.3323C45.8251 63.3325 44.5704 64.5872 44.5702 66.1345V82.4807C44.5702 84.5442 42.8975 86.2169 40.834 86.2169C38.7706 86.2168 37.0977 84.5441 37.0977 82.4807V49.388C37.0976 48.5211 36.7529 47.6895 36.1399 47.0765L24.8983 35.834C23.3196 34.255 23.3195 31.6953 24.8983 30.1165C26.4771 28.5377 29.0369 28.5379 30.6158 30.1165L41.8583 41.3581C42.4714 41.9711 43.3029 42.3158 44.1698 42.3159H50.5751C51.4421 42.3159 52.2735 41.9711 52.8865 41.3581L64.1291 30.1165ZM67.8654 32.0977C67.3808 31.6134 66.5948 31.6132 66.1104 32.0977L54.8687 43.3402C53.7301 44.4788 52.1853 45.1181 50.5751 45.1181H44.1698C42.5597 45.118 41.0147 44.4787 39.8762 43.3402L28.6345 32.0977C28.1499 31.6134 27.364 31.6132 26.8795 32.0977C26.395 32.5822 26.3952 33.3681 26.8795 33.8527L38.1221 45.0944C39.2606 46.2329 39.8998 47.7779 39.8999 49.388V82.4807C39.8999 82.9965 40.3182 83.4146 40.834 83.4148C41.3498 83.4148 41.768 82.9966 41.768 82.4807V66.1345C41.7682 63.0395 44.2774 60.5303 47.3724 60.5302C50.4676 60.5302 52.9767 63.0395 52.9769 66.1345V82.4807C52.9769 82.9965 53.3952 83.4146 53.9109 83.4148C54.4268 83.4148 54.845 82.9966 54.845 82.4807V49.388C54.8451 47.7779 55.4843 46.2329 56.6228 45.0944L67.8654 33.8527C68.35 33.3682 68.35 32.5823 67.8654 32.0977Z" fill="#31BB8E"/>
</svg>
