<svg width="96" height="96" viewBox="0 0 96 96" fill="none" xmlns="http://www.w3.org/2000/svg">
<path d="M31.5812 22.5339C32.5886 21.9311 33.8623 21.7421 35.0792 21.936C36.3076 22.1319 37.552 22.7286 38.4917 23.7902C39.4408 24.8626 40.0239 26.3477 40.024 28.2132C40.024 31.0965 38.5068 33.5009 36.7271 35.2653C34.9463 37.0306 32.7902 38.2722 31.2292 38.8393C31.1697 38.8609 31.1092 38.8755 31.049 38.8862C31.0423 38.8873 31.0358 38.8893 31.0292 38.8903C30.8423 38.9196 30.6555 38.8979 30.4854 38.833C28.8914 38.2643 26.6941 37.0297 24.8771 35.2747C23.0542 33.5137 21.4927 31.1067 21.4927 28.2132C21.4928 26.34 22.0944 24.8513 23.0677 23.7798C24.0297 22.7209 25.2996 22.13 26.5479 21.936C27.7852 21.7439 29.0796 21.9304 30.1042 22.5277C30.376 22.6862 30.6285 22.8757 30.8542 23.0923C31.0724 22.8786 31.3175 22.6919 31.5812 22.5339ZM34.7437 24.0433C33.9378 23.9149 33.1869 24.0591 32.6771 24.3642C32.1996 24.65 31.9324 25.0657 31.9323 25.634C31.9323 25.7444 31.9156 25.8515 31.8844 25.9517C31.8532 26.0518 31.8075 26.1458 31.75 26.2308C31.6363 26.3992 31.4751 26.5329 31.2865 26.6142C31.1889 26.6562 31.0839 26.6843 30.974 26.6954C30.9381 26.6991 30.9014 26.7006 30.8646 26.7006C30.2758 26.7004 29.7981 26.2228 29.7979 25.634C29.7978 25.0793 29.5299 24.6624 29.0292 24.3704C28.4966 24.0602 27.7143 23.9143 26.876 24.0444C26.0487 24.1729 25.2418 24.5594 24.6469 25.2142C24.0631 25.8568 23.6261 26.8194 23.626 28.2132C23.626 30.3052 24.7591 32.1944 26.3594 33.7403C27.8167 35.1479 29.5634 36.1691 30.8604 36.6924C32.118 36.17 33.8112 35.1522 35.226 33.7497C36.7818 32.2072 37.8906 30.3156 37.8906 28.2132C37.8906 26.8117 37.4618 25.8455 36.8937 25.2038C36.3164 24.5517 35.5379 24.17 34.7437 24.0433Z" fill="#FF5688"/>
<path d="M12.8 21.8547C12.8 20.6494 13.3843 19.4682 14.4562 18.7787C24.1924 12.5164 36.4127 12.6579 47.6833 18.7349C48.8948 19.3882 49.6 20.6515 49.6 21.9756V22.9297H46.4V21.9756C46.4 21.7753 46.2948 21.6218 46.1646 21.5516C35.737 15.9291 24.7813 15.9429 16.1875 21.4703C16.0886 21.534 16 21.6679 16 21.8547V71.4099H12.8V21.8547Z" fill="#FF5688"/>
<path d="M83.2 21.8547C83.2 20.6494 82.6157 19.4682 81.5438 18.7787C71.8076 12.5164 59.5873 12.6579 48.3167 18.7349C47.1052 19.3882 46.4 20.6515 46.4 21.9756V22.9297H49.6V21.9756C49.6 21.7753 49.7052 21.6218 49.8354 21.5516C60.263 15.9291 71.2187 15.9429 79.8125 21.4703C79.9114 21.534 80 21.6679 80 21.8547V71.4099H83.2V21.8547Z" fill="#FF5688"/>
<path d="M16.5937 71.6191C25.0076 66.8753 35.3495 67.08 45.4094 71.8222C45.6352 71.9286 45.8914 71.9086 46.101 71.7837C46.3029 71.6632 46.4 71.487 46.4 71.2889V22.9295H49.6V71.2889C49.6 74.2123 46.4922 75.8697 44.0448 74.716C34.7118 70.3165 25.4897 70.2773 18.1656 74.4066C15.9926 75.6318 12.8001 74.2821 12.8 71.4097H16C16 71.4527 16.0096 71.4778 16.025 71.5014C16.0447 71.5315 16.0865 71.5756 16.1573 71.6128C16.3105 71.6932 16.4763 71.6853 16.5937 71.6191Z" fill="#FF5688"/>
<path d="M79.4063 71.6191C70.9924 66.8753 60.6505 67.08 50.5906 71.8222C50.3648 71.9286 50.1086 71.9086 49.899 71.7837C49.6971 71.6632 49.6 71.487 49.6 71.2889V22.9295H46.4V71.2889C46.4 74.2123 49.5078 75.8697 51.9552 74.716C61.2882 70.3165 70.5103 70.2773 77.8344 74.4066C80.0074 75.6318 83.1999 74.2821 83.2 71.4097H80C80 71.4527 79.9904 71.4778 79.975 71.5014C79.9553 71.5315 79.9135 71.5756 79.8427 71.6128C79.6895 71.6932 79.5237 71.6853 79.4063 71.6191Z" fill="#FF5688"/>
<path d="M43.2001 71.7297C44.0837 71.7297 44.8001 72.446 44.8001 73.3297C44.8001 74.2133 44.0837 74.9297 43.2001 74.9297C27.0009 74.9297 19.9958 77.6899 13.6928 81.3536C11.2244 82.7883 8.00007 81.0835 8.00007 78.1203V28.6901C8.00007 28.2412 7.98645 27.2456 8.33653 26.2828C8.72591 25.2121 9.57117 24.1679 11.1324 23.7776C11.9893 23.5636 12.8574 24.0843 13.0719 24.9411C13.2862 25.7983 12.7655 26.6673 11.9084 26.8818C11.684 26.9379 11.5795 27.0164 11.5251 27.0693C11.4637 27.129 11.4 27.2219 11.3438 27.3765C11.2139 27.7338 11.2001 28.179 11.2001 28.6901V78.1203C11.2001 78.5082 11.6556 78.8361 12.0844 78.587C18.9383 74.603 26.5129 71.7297 43.2001 71.7297Z" fill="#FF5688"/>
<path d="M52.7999 71.7297C51.9163 71.7297 51.1999 72.446 51.1999 73.3297C51.1999 74.2133 51.9163 74.9297 52.7999 74.9297C68.9991 74.9297 76.0042 77.6899 82.3072 81.3536C84.7756 82.7883 87.9999 81.0835 87.9999 78.1203V28.6901C87.9999 28.2412 88.0135 27.2456 87.6635 26.2828C87.2741 25.2121 86.4288 24.1679 84.8676 23.7776C84.0107 23.5636 83.1426 24.0843 82.9281 24.9411C82.7138 25.7983 83.2345 26.6673 84.0916 26.8818C84.316 26.9379 84.4205 27.0164 84.4749 27.0693C84.5363 27.129 84.6 27.2219 84.6562 27.3765C84.7861 27.7338 84.7999 28.179 84.7999 28.6901V78.1203C84.7999 78.5082 84.3444 78.8361 83.9156 78.587C77.0617 74.603 69.4871 71.7297 52.7999 71.7297Z" fill="#FF5688"/>
<path d="M30.8395 60.0238C35.4488 60.0237 40.24 61.2652 43.8197 63.8217C44.2991 64.1641 44.41 64.8298 44.0676 65.3092C43.7253 65.7886 43.0595 65.8995 42.5801 65.5571C39.4399 63.3145 35.1101 62.157 30.8395 62.1571C26.5593 62.1573 22.5112 63.3188 19.8822 65.5092C19.4296 65.8862 18.7572 65.8253 18.3801 65.3728C18.0032 64.9202 18.0651 64.2477 18.5176 63.8707C21.6485 61.2623 26.2401 60.024 30.8395 60.0238Z" fill="#FF5688"/>
<path d="M65.1605 60.0238C60.5512 60.0237 55.76 61.2652 52.1803 63.8217C51.7009 64.1641 51.59 64.8298 51.9324 65.3092C52.2747 65.7886 52.9405 65.8995 53.4199 65.5571C56.5601 63.3145 60.8899 62.157 65.1605 62.1571C69.4407 62.1573 73.4888 63.3188 76.1178 65.5092C76.5704 65.8862 77.2428 65.8253 77.6199 65.3728C77.9968 64.9202 77.9349 64.2477 77.4824 63.8707C74.3515 61.2623 69.7599 60.024 65.1605 60.0238Z" fill="#FF5688"/>
<path d="M30.8395 54.0227C35.4488 54.0226 40.24 55.2641 43.8197 57.8207C44.2991 58.163 44.41 58.8288 44.0676 59.3082C43.7253 59.7876 43.0595 59.8984 42.5801 59.5561C39.4399 57.3134 35.1101 56.1559 30.8395 56.1561C26.5593 56.1563 22.5112 57.3177 19.8822 59.5082C19.4296 59.8851 18.7572 59.8242 18.3801 59.3717C18.0032 58.9191 18.0651 58.2467 18.5176 57.8696C21.6485 55.2612 26.2401 54.0229 30.8395 54.0227Z" fill="#FF5688"/>
<path d="M65.1605 54.0227C60.5512 54.0226 55.76 55.2641 52.1803 57.8207C51.7009 58.163 51.59 58.8288 51.9324 59.3082C52.2747 59.7876 52.9405 59.8984 53.4199 59.5561C56.5601 57.3134 60.8899 56.1559 65.1605 56.1561C69.4407 56.1563 73.4888 57.3177 76.1178 59.5082C76.5704 59.8851 77.2428 59.8242 77.6199 59.3717C77.9968 58.9191 77.9349 58.2467 77.4824 57.8696C74.3515 55.2612 69.7599 54.0229 65.1605 54.0227Z" fill="#FF5688"/>
<path d="M30.8395 48.0217C35.4488 48.0216 40.24 49.2631 43.8197 51.8196C44.2991 52.162 44.41 52.8277 44.0676 53.3071C43.7253 53.7865 43.0595 53.8974 42.5801 53.555C39.4399 51.3124 35.1101 50.1549 30.8395 50.155C26.5593 50.1552 22.5112 51.3167 19.8822 53.5071C19.4296 53.884 18.7572 53.8232 18.3801 53.3707C18.0032 52.9181 18.0651 52.2456 18.5176 51.8686C21.6485 49.2601 26.2401 48.0219 30.8395 48.0217Z" fill="#FF5688"/>
<path d="M65.1605 48.0217C60.5512 48.0216 55.76 49.2631 52.1803 51.8196C51.7009 52.162 51.59 52.8277 51.9324 53.3071C52.2747 53.7865 52.9405 53.8974 53.4199 53.555C56.5601 51.3124 60.8899 50.1549 65.1605 50.155C69.4407 50.1552 73.4888 51.3167 76.1178 53.5071C76.5704 53.884 77.2428 53.8232 77.6199 53.3707C77.9968 52.9181 77.9349 52.2456 77.4824 51.8686C74.3515 49.2601 69.7599 48.0219 65.1605 48.0217Z" fill="#FF5688"/>
<path d="M30.8395 42.0212C35.4488 42.021 40.24 43.2626 43.8197 45.8191C44.2991 46.1615 44.41 46.8272 44.0676 47.3066C43.7253 47.786 43.0595 47.8969 42.5801 47.5545C39.4399 45.3119 35.1101 44.1544 30.8395 44.1545C26.5593 44.1547 22.5112 45.3162 19.8822 47.5066C19.4296 47.8835 18.7572 47.8227 18.3801 47.3701C18.0032 46.9175 18.0651 46.2451 18.5176 45.8681C21.6485 43.2596 26.2401 42.0214 30.8395 42.0212Z" fill="#FF5688"/>
<path d="M65.1605 42.0212C60.5512 42.021 55.76 43.2626 52.1803 45.8191C51.7009 46.1615 51.59 46.8272 51.9324 47.3066C52.2747 47.786 52.9405 47.8969 53.4199 47.5545C56.5601 45.3119 60.8899 44.1544 65.1605 44.1545C69.4407 44.1547 73.4888 45.3162 76.1178 47.5066C76.5704 47.8835 77.2428 47.8227 77.6199 47.3701C77.9968 46.9175 77.9349 46.2451 77.4824 45.8681C74.3515 43.2596 69.7599 42.0214 65.1605 42.0212Z" fill="#FF5688"/>
<path d="M67.9469 25.3295C67.9469 23.8568 66.753 22.6628 65.2802 22.6628C63.8075 22.6628 62.6136 23.8568 62.6136 25.3295C62.6136 26.8023 63.8075 27.9962 65.2802 27.9962V30.1295C62.6293 30.1295 60.4802 27.9805 60.4802 25.3295C60.4802 22.6785 62.6293 20.5295 65.2802 20.5295C67.9312 20.5295 70.0802 22.6785 70.0802 25.3295C70.0802 27.9805 67.9312 30.1295 65.2802 30.1295V27.9962C66.753 27.9962 67.9469 26.8023 67.9469 25.3295Z" fill="#FF5688"/>
<path d="M71.787 32.6733C71.787 32.5748 71.7809 32.4762 71.7714 32.3774C70.1119 33.9363 67.6912 34.8076 65.2797 34.8076C62.8692 34.8075 60.4479 33.9376 58.788 32.3795C58.7845 32.416 58.7808 32.4524 58.7786 32.4889L58.7734 32.6733C58.7734 34.7191 61.1485 37.2356 65.2797 37.2358V39.3691C60.5081 39.369 56.6401 36.3713 56.6401 32.6733C56.6401 30.9584 57.4721 29.3943 58.8401 28.2097C59.1979 30.7209 61.9441 32.6742 65.2797 32.6743C68.6153 32.6743 71.3603 30.7208 71.7182 28.2097C73.0868 29.3944 73.9203 30.958 73.9203 32.6733C73.9203 36.3713 70.0514 39.3691 65.2797 39.3691V37.2358C69.4113 37.2358 71.787 34.719 71.787 32.6733Z" fill="#FF5688"/>
</svg>
