<svg width="96" height="96" viewBox="0 0 96 96" fill="none" xmlns="http://www.w3.org/2000/svg">
<path d="M55.0334 14.75C63.3297 14.75 70.0505 21.4849 70.0334 29.7812L69.9572 66.7812C69.94 75.0533 63.2293 81.75 54.9572 81.75H34.2639C31.2826 81.75 28.508 83.2726 26.9064 85.7871C26.6098 86.2529 25.9914 86.3903 25.5256 86.0938C25.0598 85.7971 24.9224 85.1787 25.2189 84.7129C27.1877 81.6217 30.599 79.75 34.2639 79.75H54.9572C62.1265 79.75 67.9424 73.9456 67.9572 66.7764L68.0334 29.7764C68.048 22.5864 62.2234 16.75 55.0334 16.75H54.0627C53.5104 16.75 53.0627 16.3023 53.0627 15.75C53.0627 15.1977 53.5104 14.75 54.0627 14.75H55.0334ZM26.0627 61.75V36.25C26.0627 35.6977 26.5104 35.25 27.0627 35.25C27.615 35.25 28.0627 35.6977 28.0627 36.25V61.75C28.0627 68.9297 33.883 74.75 41.0627 74.75H49.5627C56.7424 74.75 62.5627 68.9297 62.5627 61.75V42.25C62.5627 41.6977 63.0104 41.25 63.5627 41.25C64.115 41.25 64.5627 41.6977 64.5627 42.25V61.75C64.5627 70.0343 57.847 76.75 49.5627 76.75H41.0627C32.7784 76.75 26.0627 70.0343 26.0627 61.75ZM36.0627 56.25V55.25C36.0627 54.6977 36.5104 54.25 37.0627 54.25C37.615 54.25 38.0627 54.6977 38.0627 55.25V56.25C38.0627 60.116 41.1967 63.25 45.0627 63.25C48.9287 63.25 52.0627 60.116 52.0627 56.25V35.75C52.0627 33.5409 50.2718 31.75 48.0627 31.75C45.8535 31.75 44.0627 33.5409 44.0627 35.75V56.75C44.0627 57.5784 44.7343 58.25 45.5627 58.25C46.3911 58.25 47.0627 57.5784 47.0627 56.75V38.25C47.0627 37.6977 47.5104 37.25 48.0627 37.25C48.615 37.25 49.0627 37.6977 49.0627 38.25V56.75C49.0627 58.683 47.4957 60.25 45.5627 60.25C43.6297 60.25 42.0627 58.683 42.0627 56.75V35.75C42.0627 32.4363 44.749 29.75 48.0627 29.75C51.3764 29.75 54.0627 32.4363 54.0627 35.75V56.25C54.0627 61.2206 50.0332 65.25 45.0627 65.25C40.0921 65.25 36.0627 61.2206 36.0627 56.25ZM62.5627 36.25V34.75C62.5627 27.5703 56.7424 21.75 49.5627 21.75H46.0627C38.883 21.75 33.0627 27.5703 33.0627 34.75V57.25C33.0627 63.8774 38.4353 69.25 45.0627 69.25C51.6901 69.25 57.0627 63.8774 57.0627 57.25V36.25C57.0627 31.0033 52.8094 26.75 47.5627 26.75C42.316 26.75 38.0627 31.0033 38.0627 36.25V50.25C38.0627 50.8023 37.615 51.25 37.0627 51.25C36.5104 51.25 36.0627 50.8023 36.0627 50.25V36.25C36.0627 29.8987 41.2114 24.75 47.5627 24.75C53.914 24.75 59.0627 29.8987 59.0627 36.25V57.25C59.0627 64.982 52.7947 71.25 45.0627 71.25C37.3307 71.25 31.0627 64.982 31.0627 57.25V34.75C31.0627 26.4657 37.7784 19.75 46.0627 19.75H49.5627C57.847 19.75 64.5627 26.4657 64.5627 34.75V36.25C64.5627 36.8023 64.115 37.25 63.5627 37.25C63.0104 37.25 62.5627 36.8023 62.5627 36.25ZM26.0627 31.25V29.75C26.0627 21.4657 32.7784 14.75 41.0627 14.75H49.0627C49.615 14.75 50.0627 15.1977 50.0627 15.75C50.0627 16.3023 49.615 16.75 49.0627 16.75H41.0627C33.883 16.75 28.0627 22.5703 28.0627 29.75V31.25C28.0627 31.8023 27.615 32.25 27.0627 32.25C26.5104 32.25 26.0627 31.8023 26.0627 31.25Z" fill="#3C8CF4"/>
<path d="M56.9609 8.75C67.7168 8.75018 76.4419 17.4599 76.4609 28.2158L76.5303 67.7158C76.5492 78.4987 67.8132 87.25 57.0303 87.25H34.0625C33.2342 87.2499 32.5625 86.5783 32.5625 85.75C32.5625 84.9217 33.2342 84.2501 34.0625 84.25H57.0303C66.1544 84.25 73.5465 76.8448 73.5303 67.7207L73.4609 28.2207C73.4448 19.1196 66.0621 11.7502 56.9609 11.75H38.9697C29.8425 11.75 22.4492 19.16 22.4697 28.2871L22.5479 62.7529C22.5566 66.5999 23.9093 70.323 26.3721 73.2783L27.1709 74.2373L29.1231 76.1895C29.7088 76.7752 29.7088 77.7248 29.1231 78.3105C28.5373 78.8963 27.5877 78.8963 27.002 78.3105L24.9541 76.2627L24.0674 75.1992C21.1568 71.7065 19.5582 67.3063 19.5479 62.7598L19.4697 28.2939C19.4454 17.5073 28.183 8.75 38.9697 8.75H56.9609Z" fill="#3C8CF4"/>
</svg>
