<svg width="128" height="128" viewBox="0 0 128 128" fill="none" xmlns="http://www.w3.org/2000/svg">
<path d="M64.686 19.003C100.721 37.019 100.722 90.984 64.686 109L63.9999 107.627L63.3147 108.997C27.2788 90.9811 27.2792 37.016 63.3147 19L64.0019 20.3723L64.686 19.003ZM64.0039 105.892C96.8473 88.784 96.8453 39.2108 63.9979 22.1072C31.1531 39.2145 31.155 88.7884 64.0039 105.892Z" fill="#005EFF"/>
<path d="M62.8638 107.478V97.1209L37.7393 71.9965C37.3388 71.5959 37.3389 70.9466 37.7393 70.546C38.1399 70.1455 38.7892 70.1455 39.1898 70.546L62.8638 94.219V75.3261L39.304 51.7663C38.9037 51.3657 38.9036 50.7164 39.304 50.3159C39.7045 49.9154 40.3538 49.9155 40.7544 50.3159L62.8638 72.4242V64.3135L42.0576 43.5074C41.6571 43.1068 41.6571 42.4575 42.0576 42.0569C42.4582 41.6565 43.1076 41.6564 43.5081 42.0569L62.8638 61.4126V37.0705L53.528 27.7347C53.1276 27.3341 53.1275 26.6848 53.528 26.2843C53.9285 25.8838 54.5779 25.8839 54.9785 26.2843L62.8638 34.1686V31.6223L56.3959 25.1544C55.9953 24.7538 55.9953 24.1035 56.3959 23.7029C56.7963 23.3027 57.4458 23.3027 57.8463 23.7029L62.8638 28.7204V20.2992C62.8638 19.7327 63.323 19.2734 63.8895 19.2734C64.4558 19.2737 64.9152 19.7328 64.9152 20.2992V39.6168L75.7816 28.7504C76.1821 28.35 76.8315 28.3501 77.232 28.7504C77.6326 29.151 77.6326 29.8003 77.232 30.2009L64.9152 42.5177V50.5142L80.7139 34.7155C81.1144 34.315 81.7638 34.3152 82.1644 34.7155C82.5649 35.1161 82.5649 35.7654 82.1644 36.166L64.9152 53.4161V83.4358L88.8587 59.4924C89.2592 59.0921 89.9086 59.092 90.3091 59.4924C90.7096 59.8929 90.7095 60.5422 90.3091 60.9428L64.9152 86.3367V107.478C64.9151 108.045 64.4557 108.504 63.8895 108.504C63.3231 108.504 62.8639 108.045 62.8638 107.478ZM53.6212 92.6774C54.0673 92.3283 54.7125 92.4066 55.0616 92.8527L57.5738 96.0631C57.923 96.5092 57.8437 97.1544 57.3975 97.5036C56.9514 97.8523 56.3071 97.7733 55.9581 97.3273L53.4459 94.1168C53.0969 93.6707 53.1752 93.0265 53.6212 92.6774ZM79.4648 84.1009C79.8654 83.7003 80.5147 83.7003 80.9153 84.1009C81.3156 84.5015 81.3158 85.1509 80.9153 85.5514L76.617 89.8496C76.2164 90.2502 75.5661 90.2502 75.1656 89.8496C74.7654 89.4491 74.7653 88.7997 75.1656 88.3992L79.4648 84.1009ZM70.9925 85.1878C71.3931 84.7873 72.0424 84.7872 72.443 85.1878C72.8433 85.5883 72.8434 86.2377 72.443 86.6382L70.1381 88.9431C69.7375 89.3437 69.0872 89.3437 68.6866 88.9431C68.2864 88.5426 68.2863 87.8931 68.6866 87.4926L70.9925 85.1878ZM53.6472 80.7102C54.0478 80.3097 54.6971 80.3097 55.0977 80.7102L58.4874 84.1009C58.888 84.5015 58.888 85.1508 58.4874 85.5514C58.0868 85.9515 57.4374 85.9518 57.0369 85.5514L53.6472 82.1606C53.2466 81.7601 53.2466 81.1108 53.6472 80.7102ZM42.6827 69.946C43.0833 69.5459 43.7327 69.5456 44.1331 69.946L46.5262 72.3401C46.9268 72.7406 46.9268 73.3899 46.5262 73.7905C46.1256 74.191 45.4763 74.191 45.0757 73.7905L42.6827 71.3975C42.2821 70.9969 42.2821 70.3466 42.6827 69.946ZM51.2532 68.749C51.6537 68.3484 52.303 68.3484 52.7036 68.749L55.0977 71.142C55.4981 71.5425 55.4979 72.1919 55.0977 72.5925C54.6971 72.9931 54.0478 72.9931 53.6472 72.5925L51.2532 70.1994C50.8526 69.7989 50.8527 69.1496 51.2532 68.749ZM73.8864 59.4924C74.287 59.0921 74.9364 59.092 75.3368 59.4924C75.7373 59.8928 75.7371 60.5422 75.3368 60.9428L71.0376 65.2421C70.637 65.6424 69.9876 65.6426 69.5871 65.2421C69.1867 64.8416 69.1869 64.1922 69.5871 63.7916L73.8864 59.4924ZM83.7631 56.3771C84.1635 55.9767 84.8129 55.977 85.2135 56.3771C85.6141 56.7777 85.6141 57.428 85.2135 57.8285L80.9153 62.1268C80.5147 62.5274 79.8654 62.5273 79.4648 62.1268C79.0642 61.7262 79.0642 61.0769 79.4648 60.6764L83.7631 56.3771ZM77.4714 48.011C77.872 47.6105 78.5213 47.6104 78.9219 48.011C79.3223 48.4115 79.3224 49.0609 78.9219 49.4614L76.617 51.7663C76.2164 52.1669 75.5661 52.1669 75.1656 51.7663C74.7654 51.3658 74.7653 50.7163 75.1656 50.3159L77.4714 48.011ZM54.0469 47.2196C54.4474 46.8192 55.0968 46.8192 55.4973 47.2196L57.8914 49.6137C58.2918 50.0142 58.2918 50.6636 57.8914 51.0641C57.4909 51.4646 56.8415 51.4645 56.4409 51.0641L54.0469 48.6701C53.6465 48.2695 53.6464 47.6201 54.0469 47.2196ZM52.1517 35.9195C52.5522 35.5193 53.2016 35.5193 53.6021 35.9195L56.9929 39.3103C57.3933 39.7108 57.3932 40.3601 56.9929 40.7607C56.5923 41.1613 55.943 41.1613 55.5424 40.7607L52.1517 37.371C51.7511 36.9704 51.7511 36.3201 52.1517 35.9195ZM69.4008 28.7504C69.8014 28.3501 70.4507 28.35 70.8513 28.7504C71.2518 29.151 71.2517 29.8003 70.8513 30.2009L68.5464 32.5068C68.1459 32.9071 67.4965 32.9069 67.0959 32.5068C66.6954 32.1062 66.6954 31.4559 67.0959 31.0553L69.4008 28.7504Z" fill="#005EFF"/>
</svg>
