<svg width="96" height="96" viewBox="0 0 96 96" fill="none" xmlns="http://www.w3.org/2000/svg">
<path d="M45.0279 37.4134C45.4777 35.1477 48.7745 35.326 48.9775 37.627L51.34 64.404L53.9571 50.5019C54.368 48.3195 57.4992 48.336 57.8872 50.5224L58.4012 53.4224L58.8529 51.7183C59.0848 50.8422 59.877 50.2319 60.7833 50.2317H64.4792V45.4637L74.4678 51.2306L64.4792 56.9974V52.2294H60.7833L60.3326 53.9335C59.7851 56.0023 56.8086 55.8785 56.4348 53.7716L55.9207 50.8716L53.3036 64.7736C52.8741 67.055 49.5541 66.8921 49.3501 64.5795L46.9876 37.8026L44.4426 50.6209C44.2569 51.5559 43.4362 52.2294 42.483 52.2294H30.5182V56.9974L20.5296 51.2306L30.5182 45.4637V50.2317H42.483L45.0279 37.4134Z" fill="#FF5688"/>
<path d="M53.2508 16.2669C56.9316 14.064 61.7409 13.3017 66.471 14.0556C71.2172 14.8122 75.9858 17.11 79.5712 21.1607C83.1702 25.227 85.4999 30.9726 85.5 38.472C85.5 49.9676 79.4488 59.7588 71.9677 67.1754C64.4849 74.5934 55.4143 79.7991 48.9793 82.1368C48.9098 82.1621 48.839 82.1798 48.7687 82.1943C48.7417 82.1999 48.715 82.2068 48.6877 82.2109C48.6809 82.2119 48.674 82.212 48.6672 82.2129C48.4388 82.2439 48.2001 82.2238 47.9678 82.1417C41.3724 79.8073 32.0688 74.6049 24.3913 67.1891C16.718 59.7772 10.5 49.9825 10.5 38.472C10.5001 30.9618 12.8953 25.212 16.5878 21.1471C20.2645 17.0997 25.1489 14.8085 30.003 14.0546C34.8415 13.3033 39.7594 14.0628 43.5237 16.2582C45.5902 17.4634 47.3082 19.1092 48.4497 21.152C49.5608 19.1171 51.2339 17.4741 53.2508 16.2669ZM65.9989 17.0141C61.8459 16.3522 57.7709 17.0536 54.7891 18.8382C51.853 20.5957 49.9667 23.3931 49.9665 27.1441C49.9665 27.9715 49.2955 28.6422 48.4682 28.6424L48.4672 28.6414V28.6424C47.6398 28.6424 46.969 27.9716 46.969 27.1441C46.9688 23.4121 45.0422 20.6132 42.0137 18.847C38.9404 17.0547 34.7408 16.3508 30.4625 17.0151C26.1999 17.6771 21.9669 19.6818 18.8059 23.1614C15.6606 26.624 13.4966 31.6351 13.4966 38.472C13.4966 48.8566 19.1123 57.9244 26.4729 65.0343C33.631 71.9484 42.2795 76.849 48.4594 79.1324C54.4721 76.8505 62.8893 71.9562 69.8578 65.048C77.0247 57.9429 82.5034 48.8712 82.5034 38.472C82.5034 31.6244 80.3913 26.6081 77.3277 23.1468C74.2508 19.6705 70.1357 17.6735 65.9989 17.0141Z" fill="#FF5688"/>
</svg>
