<svg width="96" height="96" viewBox="0 0 96 96" fill="none" xmlns="http://www.w3.org/2000/svg">
<path d="M84.9665 43.8818C84.9665 43.1745 85.5399 42.6011 86.2472 42.6011C86.9545 42.6011 87.5279 43.1745 87.5279 43.8818C87.5279 50.5555 85.9194 57.1335 82.8345 63.0776C79.7496 69.0217 75.276 74.1621 69.7829 78.0803C64.29 81.9983 57.9325 84.584 51.23 85.6262C45.515 86.5148 39.6867 86.2589 34.092 84.8883L38.0292 92.5134C38.3536 93.1419 38.1073 93.9149 37.4789 94.2394C36.8504 94.5639 36.0774 94.3167 35.7529 93.6882L30.4649 83.4466C30.1405 82.8182 30.3868 82.0452 31.0152 81.7207L41.2577 76.4327C41.8861 76.1084 42.6584 76.3554 42.9828 76.9838C43.3072 77.6123 43.0609 78.3845 42.4325 78.709L35.0975 82.4953C40.243 83.7019 45.5903 83.9105 50.8364 83.0948C57.1469 82.1135 63.1294 79.6798 68.2954 75.9949C73.4614 72.3101 77.6641 67.479 80.5607 61.8978C83.4572 56.3167 84.9665 50.1432 84.9665 43.8818Z" fill="#3C8CF4"/>
<path d="M6.41276 12.0242L17.9184 12.7204C18.6243 12.7633 19.1618 13.3702 19.1191 14.0762L18.4237 25.5818C18.3808 26.2876 17.7737 26.825 17.0679 26.7825C16.3619 26.7398 15.8237 26.1328 15.8664 25.4267L16.3642 17.1946C12.828 20.8864 10.0504 25.2276 8.19627 29.9801C5.95294 35.7304 5.12487 41.9209 5.77907 48.0453C6.43332 54.1697 8.55144 60.0563 11.9617 65.2234C15.3721 70.3905 19.9784 74.6918 25.4051 77.7746C26.0201 78.124 26.2356 78.9064 25.8863 79.5214C25.5369 80.1364 24.7544 80.3519 24.1394 80.0025C18.3642 76.7217 13.4584 72.141 9.82386 66.6342C6.18922 61.1272 3.92968 54.8504 3.2318 48.3172C2.53393 41.7839 3.41778 35.1814 5.80992 29.0496C7.84156 23.842 10.9114 19.0998 14.8275 15.0984L6.25768 14.5815C5.55185 14.5386 5.0144 13.9316 5.057 13.2257C5.0997 12.5197 5.70673 11.9815 6.41276 12.0242Z" fill="#3C8CF4"/>
<path d="M43.0627 1.67717C49.7331 1.31883 56.3906 2.58463 62.4903 5.36842C68.5899 8.15218 73.9574 12.3744 78.155 17.6879C81.7376 22.2229 84.38 27.4437 85.9394 33.0307L90.6487 25.8591C91.0369 25.2679 91.8309 25.1033 92.4222 25.4914C93.0133 25.8797 93.178 26.6737 92.7899 27.2649L86.4638 36.9004C86.0756 37.4916 85.2816 37.6563 84.6903 37.2681L75.0549 30.942C74.4636 30.5538 74.299 29.7598 74.6872 29.1685C75.0754 28.5774 75.8695 28.4127 76.4607 28.8008L83.3629 33.3325C81.8813 28.2155 79.4322 23.4369 76.1447 19.2754C72.1963 14.2775 67.1525 10.311 61.4272 7.69807C55.702 5.08514 49.4561 3.89921 43.2002 4.23528C36.9444 4.57137 30.853 6.42058 25.4244 9.63332C24.8157 9.99332 24.0302 9.79168 23.6701 9.18307C23.3099 8.57438 23.5116 7.78897 24.1203 7.42875C29.9014 4.0074 36.3924 2.03555 43.0627 1.67717Z" fill="#3C8CF4"/>
<path d="M36.726 71.2558V67.4061C36.7258 66.699 36.1524 66.1254 35.4452 66.1254H29.4685C27.3466 66.1254 25.6264 64.4052 25.6264 62.2832V52.8971C25.6262 52.1899 25.0529 51.6164 24.3456 51.6164H22.9407C20.0844 51.6164 18.2271 48.6104 19.5046 46.0558L25.4913 34.084C25.5752 33.9162 25.6286 33.6986 25.6347 33.4645C25.776 28.0822 27.676 23.9582 30.6684 21.0075C33.6395 18.0778 37.6033 16.3855 41.7663 15.6769C50.0163 14.2729 59.5148 16.667 64.5267 21.6795L64.8985 22.058C72.6073 30.0373 74.0602 40.2258 71.7416 48.7673C69.4051 57.3742 63.1445 64.5731 55.2989 65.9887C54.3761 66.1551 53.8023 66.857 53.8023 67.5195V71.3675C53.8023 72.0749 53.2289 72.6483 52.5215 72.6483C51.8142 72.6483 51.2408 72.0749 51.2408 71.3675V67.5195C51.2408 65.3528 52.9822 63.8039 54.8437 63.4681C61.4217 62.2814 67.1038 56.0765 69.2702 48.0961C71.4174 40.1858 70.0171 30.792 62.7156 23.4905C58.4291 19.2032 49.8408 16.9014 42.1957 18.2025C38.4113 18.8467 34.9752 20.3578 32.4669 22.831C29.9801 25.2831 28.3205 28.7621 28.1953 33.532C28.1806 34.0929 28.0544 34.6861 27.7826 35.2296L21.795 47.2014C21.3692 48.053 21.9886 49.0549 22.9407 49.0549H24.3456C26.4675 49.0549 28.1877 50.7753 28.1878 52.8971V62.2832C28.1878 62.9905 28.7613 63.5639 29.4685 63.564H35.4452C37.5671 63.564 39.2872 65.2843 39.2874 67.4061V71.2558C39.2872 71.963 38.7139 72.5365 38.0067 72.5365C37.2995 72.5365 36.7262 71.963 36.726 71.2558Z" fill="#3C8CF4"/>
<path d="M36.7258 55.8354C37.1973 55.8354 37.5796 56.2176 37.5796 56.6892C37.5796 57.1607 37.1973 57.543 36.7258 57.543H26.9069C26.4354 57.543 26.0531 57.1607 26.0531 56.6892C26.0531 56.2176 26.4354 55.8354 26.9069 55.8354H36.7258Z" fill="#3C8CF4"/>
<path d="M29.0414 36.6691C31.0638 32.6245 37.0847 32.6244 39.1071 36.6691L38.3433 37.0502L39.1071 37.4312C37.0848 41.4764 31.0637 41.4763 29.0414 37.4312L29.8052 37.0502L29.0414 36.6691ZM37.3569 37.0502C35.8633 34.7755 32.2841 34.7753 30.7907 37.0502C32.284 39.3258 35.8634 39.3256 37.3569 37.0502Z" fill="#3C8CF4"/>
<path d="M61.4862 36.1977C61.4862 31.4822 57.6636 27.6595 52.9481 27.6595C48.2326 27.6595 44.4099 31.4822 44.4099 36.1977C44.4099 40.9132 48.2326 44.7358 52.9481 44.7358V46.4434C47.2895 46.4434 42.7023 41.8562 42.7023 36.1977C42.7023 30.5391 47.2895 25.9519 52.9481 25.9519C58.6067 25.9519 63.1939 30.5391 63.1939 36.1977C63.1939 41.8562 58.6067 46.4434 52.9481 46.4434V44.7358C57.6636 44.7358 61.4862 40.9132 61.4862 36.1977Z" fill="#3C8CF4"/>
</svg>
